{"glyphs":{"0":{"ha":936,"x_min":58,"x_max":876,"o":"m 467 1 q 320 28 393 1 q 189 110 247 56 q 94 250 131 165 q 58 450 58 335 l 58 481 q 94 678 58 594 q 187 815 129 761 q 318 895 244 869 q 468 921 392 921 q 615 894 542 921 q 746 813 688 868 q 840 675 804 758 q 876 476 876 592 q 841 265 876 354 q 748 117 806 175 q 617 30 690 58 q 467 1 543 1 m 651 465 q 633 623 650 551 q 590 746 617 694 q 532 826 564 797 q 468 854 500 854 q 402 826 435 854 q 344 747 369 797 q 301 624 318 696 q 283 465 285 553 q 301 305 285 378 q 344 180 318 232 q 403 99 371 128 q 468 69 436 69 q 532 99 500 69 q 590 181 564 128 q 633 306 617 233 q 651 465 650 378 z "},"1":{"ha":443,"x_min":60,"x_max":385,"o":"m 60 0 l 60 71 l 79 72 q 108 85 99 75 q 118 126 118 94 q 119 369 118 253 l 119 756 q 114 777 119 769 q 101 789 108 785 q 88 794 94 793 q 79 796 82 796 l 60 797 l 60 872 l 214 919 l 279 919 q 319 903 303 919 q 335 865 335 888 l 333 121 q 365 72 333 75 l 385 71 l 385 0 l 60 0 z "},"2":{"ha":806,"x_min":58,"x_max":746,"o":"m 61 19 q 59 45 60 35 q 58 69 58 56 q 76 172 60 128 q 119 251 93 215 q 178 314 144 286 q 249 368 213 342 q 342 439 296 401 q 426 519 389 476 q 487 608 464 561 q 510 710 510 656 q 505 754 510 729 q 488 801 500 779 q 457 840 476 824 q 407 856 438 856 q 344 836 368 856 q 306 790 319 817 q 286 735 292 763 q 281 692 281 708 l 281 681 q 251 603 283 636 q 182 572 224 572 q 97 603 129 572 q 64 688 64 635 q 83 762 64 721 q 143 838 101 803 q 251 897 185 874 q 413 921 317 921 q 550 904 489 921 q 655 857 611 888 q 722 783 699 826 q 746 688 746 740 q 715 569 746 621 q 635 478 685 518 q 526 406 586 438 q 406 344 465 374 q 280 281 339 313 q 185 210 221 249 q 183 199 181 206 q 185 194 183 197 q 193 192 188 192 l 526 192 q 744 190 631 190 l 746 1 l 64 1 l 61 19 z "},"3":{"ha":818,"x_min":57,"x_max":757,"o":"m 397 -7 q 240 17 304 -7 q 135 76 175 40 q 76 152 94 111 q 57 226 57 193 q 88 310 57 278 q 171 342 119 342 q 203 335 182 342 q 240 311 224 329 q 263 249 264 285 q 296 97 258 136 q 397 64 328 64 q 472 85 444 64 q 513 133 499 106 q 530 190 526 161 q 533 232 533 218 q 526 291 533 260 q 501 348 518 322 q 459 391 485 374 q 399 408 433 408 q 374 418 383 408 q 365 443 365 428 q 374 467 365 458 q 400 479 385 479 q 453 501 431 479 q 492 553 476 522 q 515 620 507 585 q 522 682 522 656 q 492 801 522 764 q 399 839 463 839 q 285 694 285 839 q 277 635 285 658 q 257 598 269 611 q 230 578 244 585 q 203 571 215 572 q 194 569 199 569 q 185 569 189 569 q 109 603 139 569 q 79 688 79 636 q 96 759 79 721 q 150 830 113 797 q 248 884 188 863 q 396 906 308 906 q 552 883 486 906 q 661 824 618 861 q 725 742 704 788 q 746 650 746 696 q 700 529 746 581 q 589 450 654 478 q 664 415 632 438 q 717 366 696 393 q 747 308 738 339 q 757 247 757 278 q 734 154 757 200 q 666 73 711 108 q 553 15 621 38 q 397 -7 486 -7 z "},"4":{"ha":778,"x_min":43,"x_max":724,"o":"m 399 74 l 418 75 q 447 86 438 76 q 457 129 457 96 l 457 218 l 43 218 l 43 317 l 403 921 l 547 921 q 572 915 561 921 q 590 898 583 908 q 597 875 596 888 q 590 850 597 863 l 474 640 q 474 595 461 617 q 513 574 486 574 l 592 575 q 649 551 625 575 q 672 494 672 528 l 672 290 l 724 290 l 724 218 l 672 218 l 672 124 q 704 75 672 78 l 724 74 l 724 1 l 399 1 l 399 74 m 457 472 q 433 489 442 479 q 421 510 425 499 q 415 535 415 522 l 288 304 q 287 299 288 301 q 286 294 286 297 l 457 290 l 457 472 z "},"5":{"ha":794,"x_min":54,"x_max":738,"o":"m 393 -10 q 274 5 333 -10 q 166 49 214 19 q 88 122 118 78 q 54 228 57 167 q 81 312 54 274 q 167 350 108 350 q 238 319 211 350 q 260 246 264 290 l 258 238 q 286 90 247 132 q 374 58 315 58 q 467 117 432 58 q 501 272 501 176 q 465 397 501 351 q 378 467 429 443 q 272 497 326 490 q 182 504 218 504 q 156 503 165 504 q 146 503 147 503 l 122 501 l 157 899 l 656 899 q 679 888 671 899 q 689 863 689 878 l 690 746 q 661 718 688 718 q 618 718 649 718 q 547 718 588 718 q 459 719 506 718 q 369 719 413 719 q 290 719 326 719 q 235 719 254 719 l 224 585 q 328 578 271 583 q 442 560 385 572 q 552 526 499 547 q 647 473 606 506 q 713 394 688 440 q 738 286 738 349 q 719 183 738 235 q 660 88 701 131 q 554 17 619 44 q 393 -10 489 -10 z "},"6":{"ha":826,"x_min":58,"x_max":764,"o":"m 411 1 q 253 38 319 1 q 144 134 188 75 q 79 269 100 193 q 58 424 58 344 q 85 601 58 513 q 163 760 111 689 q 290 875 214 831 q 465 921 367 919 q 588 903 535 921 q 678 856 642 885 q 733 791 714 828 q 751 717 751 754 q 722 640 751 667 q 643 613 692 613 q 578 641 601 613 q 551 703 554 669 q 530 806 549 771 q 451 842 511 842 q 385 816 411 842 q 342 751 358 790 q 317 668 325 713 q 306 586 310 624 q 365 616 332 606 q 435 626 397 626 q 578 600 517 626 q 681 530 639 574 q 743 431 722 486 q 764 318 764 375 q 743 204 764 261 q 678 102 722 147 q 569 29 635 57 q 411 1 503 1 m 536 306 q 528 393 536 350 q 504 471 519 436 q 466 528 489 506 q 415 550 443 550 q 363 528 386 550 q 324 473 340 507 q 300 396 308 439 q 292 308 292 353 q 300 222 292 265 q 324 145 308 179 q 363 90 340 111 q 414 69 385 69 q 465 90 442 69 q 503 144 488 111 q 528 220 519 178 q 536 306 536 263 z "},"7":{"ha":835,"x_min":44,"x_max":794,"o":"m 114 67 q 136 76 125 71 q 153 83 144 79 q 169 90 163 88 q 319 451 232 289 q 518 740 406 613 l 193 740 q 111 681 142 740 l 103 663 l 44 689 q 63 767 54 726 q 74 841 69 800 q 79 919 79 882 q 156 919 110 919 q 258 919 203 919 q 376 920 314 919 q 497 921 438 921 q 794 921 636 921 l 790 897 q 788 884 790 894 q 784 861 786 874 q 780 838 782 849 q 778 824 778 826 l 776 813 l 767 807 q 644 690 703 769 q 538 508 585 610 q 459 297 490 407 q 418 88 428 186 q 444 76 431 83 q 457 71 450 74 l 469 65 l 469 1 l 114 1 l 114 67 z "},"8":{"ha":833,"x_min":61,"x_max":772,"o":"m 415 -4 q 257 19 324 -4 q 147 78 190 42 q 82 160 103 114 q 61 253 61 207 q 95 367 61 314 q 192 454 129 419 q 102 542 133 490 q 71 657 71 594 q 91 750 71 704 q 153 833 111 796 q 260 892 196 869 q 414 915 325 915 q 569 892 504 915 q 677 833 635 869 q 740 750 719 796 q 761 657 761 704 q 729 543 761 596 q 640 454 697 490 q 738 367 703 419 q 772 253 772 314 q 749 159 772 206 q 682 76 726 113 q 570 18 638 40 q 415 -4 503 -4 m 417 849 q 348 824 374 849 q 310 768 322 800 q 294 703 297 736 q 290 653 290 669 q 296 603 290 632 q 316 549 301 575 q 354 506 331 524 q 415 488 378 488 q 484 510 460 488 q 520 560 508 532 q 535 616 532 589 q 538 653 538 643 q 531 724 538 689 q 508 786 524 758 q 471 831 493 814 q 417 849 449 849 m 549 231 q 546 274 549 243 q 530 336 543 304 q 490 393 517 368 q 415 418 463 418 q 350 397 375 418 q 310 344 325 375 q 290 283 296 314 q 285 232 285 251 q 293 172 285 201 q 318 117 301 142 q 360 78 335 93 q 418 64 385 64 q 474 78 450 64 q 515 117 499 93 q 540 170 532 140 q 549 231 549 200 z "},"9":{"ha":826,"x_min":61,"x_max":767,"o":"m 360 1 q 238 19 290 1 q 149 67 185 38 q 94 132 113 96 q 75 206 75 168 q 104 283 75 256 q 182 311 133 311 q 248 283 224 311 q 274 221 272 254 q 295 117 276 153 q 374 82 314 82 q 441 108 414 82 q 484 172 468 133 q 508 256 500 211 q 519 338 517 300 q 392 297 467 297 q 249 324 311 297 q 146 393 188 350 q 83 492 104 436 q 61 604 61 547 q 82 718 61 661 q 147 820 103 775 q 257 893 190 865 q 414 921 324 921 q 572 885 506 921 q 682 789 639 849 q 746 654 725 729 q 767 500 767 579 q 740 323 767 411 q 663 164 714 235 q 535 49 611 93 q 361 1 460 4 l 360 1 m 535 615 q 526 701 535 658 q 502 778 518 744 q 463 833 486 813 q 413 854 440 854 q 361 833 383 854 q 323 778 339 813 q 299 702 307 744 q 290 617 290 660 q 299 531 290 574 q 322 453 307 488 q 360 396 338 418 q 410 374 382 374 q 462 395 439 374 q 501 451 485 417 q 526 528 517 485 q 535 615 535 572 z "},"\u0000":{"ha":0,"x_min":0,"x_max":0,"o":""},"\r":{"ha":0,"x_min":0,"x_max":0,"o":""}," ":{"ha":507,"x_min":0,"x_max":0,"o":""},"\n":{"ha":0,"x_min":0,"x_max":0,"o":""},"!":{"ha":335,"x_min":64,"x_max":269,"o":"m 269 772 q 269 753 269 763 q 267 733 268 744 q 263 699 267 718 q 260 682 261 690 q 258 667 260 674 l 204 219 l 119 219 l 76 669 q 74 682 75 674 q 71 700 72 690 l 67 733 l 65 771 q 64 790 64 781 q 64 808 64 799 l 64 822 q 69 871 64 850 q 98 941 76 911 q 167 971 119 971 q 251 914 231 971 q 264 869 258 896 q 269 824 269 843 l 269 772 m 263 93 q 257 56 263 71 q 236 25 250 40 q 168 0 207 0 q 133 6 150 0 q 101 24 117 13 q 79 54 89 35 q 72 89 72 72 q 100 154 72 126 q 131 176 114 169 q 168 183 146 183 q 204 176 190 183 q 234 156 221 169 q 256 128 247 143 q 263 93 263 111 z "},"\"":{"ha":336,"x_min":31,"x_max":303,"o":"m 86 1019 q 130 1009 119 1019 q 139 983 140 999 l 110 764 l 63 764 l 33 978 q 47 1012 31 1004 q 86 1019 63 1019 m 247 1019 q 292 1009 282 1019 q 300 983 303 999 l 272 764 l 225 764 l 196 978 q 208 1012 192 1004 q 247 1019 224 1019 z "},"#":{"ha":814,"x_min":53,"x_max":760,"o":"m 404 0 l 431 186 l 336 186 l 307 0 l 154 0 l 183 186 l 53 186 l 53 293 l 201 293 l 222 424 l 88 424 l 88 535 l 239 535 l 276 746 l 428 746 l 392 535 l 485 535 l 519 746 l 672 746 l 636 535 l 760 535 l 760 424 l 619 424 l 599 293 l 728 293 l 728 186 l 582 186 l 556 0 l 404 0 m 447 293 l 468 424 l 374 424 l 353 293 l 447 293 z "},"$":{"ha":890,"x_min":61,"x_max":833,"o":"m 832 335 q 828 265 832 297 q 808 197 824 232 q 752 112 786 147 q 675 54 718 76 q 583 22 632 32 q 481 10 533 11 l 481 -68 l 415 -68 l 415 13 q 304 35 364 18 q 193 85 244 51 q 106 169 142 118 q 63 293 69 219 q 68 340 61 314 q 71 353 68 344 q 88 390 75 375 q 135 436 106 419 q 196 453 164 453 q 209 452 203 453 q 222 450 215 451 q 286 418 258 442 q 321 351 314 394 q 320 300 325 324 q 296 254 315 276 q 273 215 283 240 q 276 161 263 189 q 290 141 281 154 q 315 115 299 128 q 356 89 331 101 q 415 72 381 76 l 415 363 q 392 373 404 368 q 369 382 381 378 q 344 392 357 388 q 323 428 338 411 q 289 456 308 444 q 248 473 269 467 q 206 479 226 479 q 158 474 179 479 q 138 491 146 483 q 119 508 129 499 q 63 665 65 571 q 91 797 63 739 q 168 895 119 856 q 281 956 217 935 q 415 976 344 976 l 415 1047 l 481 1047 l 481 974 q 526 969 501 972 q 595 956 556 965 q 670 937 635 947 q 731 918 706 926 q 758 908 757 910 l 768 906 l 763 736 l 742 754 q 719 772 742 754 q 660 812 697 789 q 577 858 624 835 q 481 894 531 882 l 481 625 l 610 578 q 690 542 651 563 q 758 494 728 522 q 807 428 788 465 q 831 343 826 392 l 833 343 l 833 340 l 832 335 m 415 903 l 414 903 l 410 904 q 313 875 353 904 q 272 785 272 846 q 287 737 272 758 q 323 699 301 715 q 369 669 344 682 q 415 649 394 657 l 415 903 m 500 72 q 537 81 515 75 q 578 99 558 86 q 610 133 597 113 q 624 188 624 154 q 610 242 624 219 q 577 283 597 265 q 531 313 557 300 q 481 336 506 326 l 481 71 q 490 71 485 71 q 500 72 496 71 z "},"%":{"ha":864,"x_min":42,"x_max":828,"o":"m 125 0 l 583 964 l 729 964 l 269 0 l 125 0 m 239 607 q 157 620 192 607 q 99 653 122 633 q 64 699 76 674 q 47 750 51 725 q 53 820 42 786 q 88 882 64 854 q 238 944 142 944 l 247 944 q 365 900 318 940 q 419 797 411 860 q 382 665 431 722 q 330 626 364 646 q 239 607 296 607 m 242 876 q 220 865 228 876 q 208 835 213 854 q 201 790 203 815 q 199 738 200 765 l 199 706 q 209 684 201 693 q 228 675 217 675 q 249 684 238 675 q 263 713 261 693 l 268 843 l 268 853 q 257 871 265 865 q 242 876 249 876 m 782 76 q 733 39 765 57 q 644 21 700 21 q 558 35 594 21 q 499 70 522 49 q 462 118 475 92 q 444 171 449 144 q 482 299 433 244 q 533 338 499 318 q 624 357 567 357 l 635 357 q 713 339 681 354 q 768 302 746 324 q 802 254 790 281 q 817 203 814 228 q 782 76 828 129 m 660 263 q 649 282 657 274 q 636 290 642 290 q 614 284 626 290 q 601 258 601 278 q 601 236 601 247 q 599 214 600 225 q 596 165 597 190 q 597 122 594 140 q 610 98 600 108 q 632 88 621 88 q 649 93 643 88 q 659 116 656 101 q 663 149 663 131 q 663 186 664 167 q 663 222 663 206 q 661 239 661 231 q 661 254 661 247 l 660 263 z "},"&":{"ha":964,"x_min":42,"x_max":943,"o":"m 363 -28 q 252 -12 301 -28 q 166 31 203 4 q 104 92 129 58 q 68 161 79 126 q 53 313 42 249 q 96 422 65 376 q 165 497 126 468 q 229 543 203 526 q 240 549 235 546 q 251 556 244 553 l 261 561 l 256 571 q 238 604 247 583 q 219 657 225 628 q 214 713 214 686 q 252 839 214 789 q 361 917 290 889 q 401 927 381 924 q 442 931 421 931 q 553 902 500 931 q 629 817 607 874 q 644 733 649 772 q 629 673 642 700 q 599 624 617 646 q 559 587 581 603 q 517 560 538 571 l 501 551 l 696 296 q 722 344 707 313 q 746 413 736 375 q 676 439 706 413 q 646 508 646 465 q 674 576 646 549 q 742 604 701 604 q 806 579 779 604 q 836 518 833 554 q 833 426 842 474 q 811 336 825 378 q 783 263 797 294 q 763 218 769 231 l 943 -4 l 729 -4 l 654 82 l 640 69 q 511 -3 586 21 q 363 -28 436 -28 m 436 813 q 417 807 424 813 q 392 776 400 799 q 383 736 383 753 q 394 684 383 707 q 421 638 404 661 l 428 628 l 438 635 q 463 662 449 646 q 486 703 476 678 q 491 721 490 711 q 492 742 492 731 q 488 771 492 757 q 475 796 485 785 q 458 808 469 803 q 436 813 450 813 m 332 478 q 284 447 310 467 q 243 394 258 426 q 244 228 210 325 q 399 88 294 89 q 458 96 429 88 q 510 117 486 104 q 552 142 533 129 q 582 165 571 156 l 588 171 l 339 482 l 332 479 l 332 478 z "},"'":{"ha":172,"x_min":31,"x_max":140,"o":"m 86 1019 q 130 1009 119 1019 q 139 983 140 999 l 110 764 l 63 764 l 33 978 q 47 1012 31 1004 q 86 1019 63 1019 z "},"(":{"ha":399,"x_min":63,"x_max":421,"o":"m 400 -139 q 249 -88 313 -139 q 144 44 186 -37 q 83 229 103 126 q 63 436 63 332 q 83 649 63 543 q 144 838 103 754 q 249 976 186 922 q 399 1031 313 1029 l 421 1032 l 421 953 l 400 953 q 342 915 369 953 q 297 812 315 878 q 267 654 278 746 q 256 454 256 563 q 267 253 256 346 q 297 91 278 160 q 343 -17 317 22 q 400 -58 369 -57 l 421 -60 l 421 -139 l 400 -139 z "},")":{"ha":401,"x_min":-21,"x_max":338,"o":"m -21 -60 l 0 -60 q 58 -22 32 -60 q 104 81 85 15 q 134 238 124 147 q 144 438 144 329 q 133 640 144 546 q 103 802 122 733 q 57 910 83 871 q 0 951 31 950 l -21 951 l -21 1031 l 0 1031 q 151 980 88 1031 q 256 847 214 929 q 317 663 297 765 q 338 456 338 560 q 317 244 338 350 q 256 55 297 139 q 151 -83 214 -29 q 1 -139 88 -137 l -21 -139 l -21 -60 z "},"*":{"ha":468,"x_min":49,"x_max":419,"o":"m 236 625 q 201 638 218 625 q 185 681 185 650 q 186 699 185 692 l 192 751 l 150 718 q 99 694 122 694 q 63 710 78 694 q 49 746 49 725 q 67 783 49 769 q 104 804 85 797 l 169 824 l 106 846 q 78 858 90 850 q 49 904 49 874 q 64 940 49 925 q 100 956 79 956 q 150 932 124 956 l 192 896 l 186 950 q 195 999 186 978 q 238 1021 204 1021 q 278 1001 267 1021 q 289 956 289 981 l 285 907 l 324 936 q 368 956 350 956 q 403 940 388 956 q 419 904 419 924 q 401 867 419 881 q 363 846 383 853 l 299 824 l 363 804 q 401 783 383 797 q 418 746 418 769 q 403 710 418 725 q 369 694 389 694 q 321 715 349 694 l 281 746 l 286 694 q 288 682 288 690 q 272 640 288 656 q 236 625 256 625 z "},"+":{"ha":742,"x_min":36,"x_max":706,"o":"m 706 443 l 706 386 l 431 386 l 431 76 l 311 76 l 311 386 l 36 386 l 36 443 l 311 443 l 311 746 l 431 746 l 431 443 l 706 443 z "},",":{"ha":257,"x_min":40,"x_max":215,"o":"m 110 129 q 145 122 126 129 q 179 98 164 114 q 205 57 194 82 q 215 -1 215 32 q 201 -68 215 -39 q 163 -120 186 -97 q 113 -158 140 -143 q 57 -181 85 -172 l 40 -144 q 111 -99 82 -125 q 140 -37 140 -74 q 117 8 140 -6 q 60 29 93 21 q 47 41 54 31 q 40 68 40 51 q 58 110 40 92 q 110 129 75 129 z "},"-":{"ha":447,"x_min":39,"x_max":407,"o":"m 39 307 l 39 406 l 407 406 l 407 307 l 39 307 z "},".":{"ha":239,"x_min":43,"x_max":194,"o":"m 118 157 q 172 134 150 157 q 194 78 194 111 q 172 22 194 43 q 118 0 150 0 q 64 22 85 0 q 43 78 43 43 q 64 134 43 111 q 118 157 85 157 z "},"/":{"ha":772,"x_min":69,"x_max":703,"o":"m 69 0 l 522 1056 l 703 1056 l 250 0 l 69 0 z "},":":{"ha":256,"x_min":51,"x_max":203,"o":"m 126 553 q 72 574 93 553 q 51 631 51 596 q 72 687 51 664 q 126 710 93 710 q 181 687 158 710 q 203 631 203 664 q 181 574 203 596 q 126 553 158 553 m 126 199 q 181 176 158 199 q 203 119 203 153 q 181 63 203 85 q 126 42 158 42 q 72 63 93 42 q 51 119 51 85 q 72 176 51 153 q 126 199 93 199 z "},";":{"ha":276,"x_min":50,"x_max":225,"o":"m 136 550 q 82 572 103 550 q 61 629 61 593 q 82 685 61 663 q 136 707 103 707 q 192 685 169 707 q 214 629 214 663 q 192 572 214 593 q 136 550 169 550 m 119 171 q 155 163 136 171 q 189 140 174 156 q 215 99 204 124 q 225 40 225 74 q 210 -26 225 3 q 173 -78 196 -56 q 122 -116 150 -101 q 67 -139 94 -131 l 50 -103 q 121 -58 92 -83 q 150 4 150 -32 q 126 49 150 36 q 69 71 103 63 q 57 83 64 72 q 50 110 50 93 q 67 152 50 133 q 119 171 85 171 z "},"<":{"ha":768,"x_min":43,"x_max":718,"o":"m 43 447 l 43 543 l 718 850 l 718 790 l 133 526 l 718 257 l 718 139 l 43 447 z "},"=":{"ha":769,"x_min":50,"x_max":719,"o":"m 50 529 l 50 649 l 719 649 l 719 529 l 50 529 m 50 278 l 50 397 l 719 397 l 719 278 l 50 278 z "},">":{"ha":768,"x_min":49,"x_max":724,"o":"m 49 199 l 635 463 l 49 733 l 49 850 l 724 543 l 724 447 l 49 139 l 49 199 z "},"?":{"ha":715,"x_min":43,"x_max":669,"o":"m 644 815 q 663 756 656 790 q 667 697 669 721 q 643 604 661 643 q 599 538 625 565 q 542 492 572 511 q 485 457 513 474 q 435 429 458 443 q 396 397 413 415 q 370 356 379 379 q 361 297 361 332 l 361 219 l 250 219 l 250 318 q 259 394 250 360 q 283 456 268 429 q 317 503 299 483 q 354 538 336 524 q 392 571 371 551 q 430 617 413 590 q 459 678 447 644 q 471 751 471 711 q 465 808 471 781 q 444 857 458 835 q 406 892 429 879 q 350 906 383 906 q 278 879 304 906 q 239 818 251 853 q 225 748 226 783 q 229 694 224 713 q 231 655 236 671 q 218 629 225 639 q 184 603 204 611 q 149 594 164 594 q 103 606 125 594 q 59 653 75 622 q 43 717 43 685 q 80 840 43 783 q 175 928 117 896 q 191 937 182 933 q 208 944 200 940 q 224 949 215 947 q 242 954 232 951 l 271 963 q 282 965 275 964 q 292 967 289 965 q 306 969 294 967 l 319 969 q 325 971 321 971 q 336 972 329 971 l 371 972 q 388 970 374 972 q 419 965 401 968 q 456 958 438 963 q 488 949 475 953 q 579 898 536 931 q 644 817 622 865 l 644 815 m 404 93 q 379 26 404 51 q 310 0 354 0 q 258 15 282 0 q 221 54 233 29 q 215 89 215 69 q 221 124 215 108 q 230 140 225 132 q 242 154 235 147 q 274 176 256 171 q 310 183 288 183 q 346 176 332 183 q 376 157 360 171 q 404 93 404 129 z "},"@":{"ha":1331,"x_min":57,"x_max":1275,"o":"m 1275 121 l 1251 60 q 1165 -87 1221 -24 q 1036 -196 1108 -151 q 881 -265 964 -240 q 711 -293 797 -289 l 688 -293 q 442 -247 557 -293 q 242 -119 328 -201 q 107 76 157 -37 q 57 324 57 189 q 107 564 57 451 q 242 760 157 676 q 442 893 328 844 q 685 942 556 942 q 906 913 811 942 q 1070 830 1001 883 q 1183 703 1139 776 q 1247 539 1226 629 q 1251 349 1271 444 q 1185 178 1232 254 q 1073 55 1139 103 q 936 7 1007 7 l 778 7 q 740 13 758 7 q 714 21 721 19 q 661 17 686 25 q 651 14 657 17 q 599 -1 631 6 q 522 -8 567 -8 q 450 -1 485 -8 q 388 23 415 6 q 343 69 360 40 q 324 142 326 99 q 340 213 322 179 q 388 276 358 247 q 458 329 418 306 q 540 371 497 353 q 624 400 582 389 q 700 415 665 411 l 700 444 q 690 511 697 475 q 674 567 682 547 q 664 585 669 575 q 649 606 658 596 q 627 621 639 615 q 599 625 615 626 q 544 594 564 621 q 531 532 525 568 q 533 517 531 531 l 538 499 q 540 485 539 492 q 539 472 540 479 q 533 437 539 454 q 517 406 528 419 l 508 397 q 506 393 508 396 q 473 372 490 378 q 433 365 456 367 q 369 383 397 365 q 331 438 342 401 q 325 478 324 460 q 333 522 325 500 q 372 589 346 561 q 433 635 399 617 q 505 665 467 654 q 581 679 543 675 q 667 683 624 685 q 747 672 711 682 q 848 615 806 656 q 906 535 890 574 q 931 428 924 482 q 939 321 939 375 l 939 181 q 949 131 939 154 q 992 108 960 108 q 1017 114 1006 108 q 1075 166 1047 131 q 1122 251 1103 201 q 1147 365 1140 301 q 1142 500 1153 428 q 1099 626 1132 564 q 1011 738 1067 689 q 876 817 956 786 q 693 847 797 847 q 484 801 579 847 q 320 680 389 756 q 213 505 251 604 q 169 297 174 406 q 212 77 165 169 q 334 -76 258 -15 q 505 -165 410 -136 q 693 -194 600 -194 q 828 -181 768 -194 q 937 -147 889 -168 q 1021 -100 985 -126 q 1083 -46 1057 -74 q 1176 104 1146 21 l 1275 121 m 700 356 q 663 346 678 354 q 596 290 615 328 q 576 204 576 253 q 578 168 576 190 q 585 125 579 146 q 604 90 592 104 q 638 75 617 75 q 687 100 674 75 q 700 157 700 125 l 700 356 z "},"A":{"ha":790,"x_min":1,"x_max":793,"o":"m 793 0 l 624 0 q 578 14 599 0 q 549 50 557 28 l 440 335 l 178 335 q 175 226 172 278 q 184 132 178 174 q 199 61 190 90 q 217 21 208 32 q 219 8 221 15 q 210 0 218 0 l 17 0 q 6 4 10 0 q 3 14 1 8 q 18 81 6 42 q 47 159 31 119 q 77 233 63 199 q 100 288 92 268 q 111 317 104 299 q 128 360 118 335 l 128 364 l 131 364 q 158 433 142 393 q 191 517 174 472 q 228 608 208 561 q 265 700 247 656 q 353 921 307 806 l 425 921 l 793 0 m 429 364 l 296 717 q 264 640 279 676 q 237 575 250 608 q 217 519 224 542 q 193 442 201 481 q 181 364 185 403 l 429 364 z "},"B":{"ha":807,"x_min":69,"x_max":776,"o":"m 468 510 q 582 492 526 510 q 681 440 638 474 q 750 358 724 406 q 776 253 776 311 q 685 67 776 133 q 411 0 593 0 l 69 0 l 69 921 l 361 921 q 520 906 453 921 q 631 865 588 892 q 694 803 674 839 q 715 724 715 767 q 690 640 715 676 q 628 578 665 604 q 547 536 590 553 q 468 510 504 519 m 263 896 l 263 453 q 292 468 275 460 q 328 485 310 476 q 363 500 346 493 q 390 511 381 507 q 444 543 418 522 q 491 591 471 564 q 524 651 511 618 q 536 718 536 683 q 527 788 536 756 q 497 845 518 821 q 438 883 475 869 q 343 896 400 896 l 263 896 m 344 25 q 467 42 417 25 q 551 88 518 58 q 598 161 583 118 q 613 257 613 204 q 597 359 613 317 q 556 428 581 401 q 498 468 531 456 q 432 481 465 481 q 360 465 394 481 q 342 457 354 463 q 315 444 329 451 q 287 431 301 438 q 263 419 272 424 l 263 25 l 344 25 z "},"C":{"ha":886,"x_min":32,"x_max":874,"o":"m 874 275 q 775 124 836 189 q 717 69 750 96 q 642 23 683 43 q 552 -8 601 3 q 444 -14 503 -18 q 299 17 363 -10 q 190 85 236 44 q 114 174 144 125 q 65 274 83 224 q 40 371 47 324 q 32 453 32 418 q 60 640 32 553 q 144 792 89 728 q 281 894 200 857 q 468 932 363 932 q 568 922 518 932 q 665 888 618 913 q 754 820 713 863 q 828 713 796 778 l 656 661 q 575 838 633 769 q 433 906 517 906 q 393 901 414 906 q 308 851 344 892 q 247 751 271 811 q 214 619 224 692 q 210 472 204 546 q 238 326 215 397 q 301 201 260 256 q 401 114 342 147 q 542 81 461 81 q 678 113 624 81 q 765 182 732 144 q 828 283 804 226 l 874 275 z "},"D":{"ha":858,"x_min":69,"x_max":825,"o":"m 361 921 q 537 890 453 921 q 685 800 621 858 q 787 656 749 742 q 825 463 825 571 q 801 295 825 378 q 724 147 776 213 q 591 41 672 82 q 396 0 510 0 l 69 0 l 69 921 l 361 921 m 385 25 q 485 62 443 25 q 555 158 528 99 q 594 294 582 218 q 607 450 607 371 q 588 660 607 575 q 533 798 568 746 q 453 873 499 850 q 356 896 408 896 l 263 896 l 263 25 l 385 25 z "},"E":{"ha":767,"x_min":69,"x_max":731,"o":"m 731 1 l 263 1 l 263 0 l 69 0 l 69 921 l 713 921 l 713 689 l 685 689 q 675 740 685 706 q 641 810 665 775 q 574 870 617 844 q 467 896 532 896 l 263 896 l 263 486 l 393 486 q 485 499 451 486 q 535 531 518 513 q 556 572 551 550 q 560 611 560 594 l 586 611 l 586 335 l 560 335 q 556 374 560 351 q 535 415 551 396 q 485 447 518 433 q 393 460 451 460 l 263 460 l 263 26 l 485 26 q 592 52 550 26 q 659 113 635 78 q 693 181 683 147 q 703 233 703 215 l 731 233 l 731 1 z "},"F":{"ha":690,"x_min":69,"x_max":672,"o":"m 672 921 l 672 689 l 644 689 q 635 740 644 706 q 602 810 626 775 q 535 870 578 844 q 426 896 493 896 l 263 896 l 263 486 l 371 486 q 463 499 429 486 q 513 531 496 513 q 533 572 529 550 q 538 611 538 594 l 564 611 l 564 335 l 538 335 q 533 374 538 351 q 513 415 529 396 q 463 447 496 433 q 371 460 429 460 l 263 460 l 263 0 l 69 0 l 69 921 l 672 921 z "},"G":{"ha":897,"x_min":35,"x_max":867,"o":"m 867 454 l 867 276 q 847 233 863 261 q 808 174 832 206 q 750 108 783 142 q 674 47 717 74 q 578 2 631 19 q 464 -15 525 -15 q 281 22 361 -15 q 147 122 201 58 q 63 272 92 186 q 35 456 35 358 q 63 640 35 554 q 146 790 92 726 q 280 891 200 854 q 464 928 360 928 q 563 918 513 928 q 658 883 613 908 q 745 817 704 858 q 817 711 786 775 l 649 661 q 569 835 626 769 q 429 901 511 901 q 389 897 410 901 q 307 846 342 888 q 251 743 272 804 q 224 608 231 682 q 227 457 218 533 q 261 308 236 381 q 328 180 286 236 q 431 90 371 124 q 571 56 492 56 q 622 60 599 56 q 668 74 646 65 l 668 454 l 867 454 z "},"H":{"ha":835,"x_min":69,"x_max":764,"o":"m 764 919 l 764 0 l 571 0 l 571 471 l 263 471 l 263 0 l 69 0 l 69 919 l 263 919 l 263 500 l 571 500 l 571 919 l 764 919 z "},"I":{"ha":333,"x_min":69,"x_max":263,"o":"m 69 0 l 69 919 l 263 919 l 263 0 l 69 0 z "},"J":{"ha":371,"x_min":11,"x_max":304,"o":"m 303 917 l 304 156 q 269 31 304 78 q 150 -15 233 -15 q 79 2 113 -15 q 25 36 46 19 q 18 56 11 47 q 36 60 25 65 q 71 60 57 51 q 94 88 85 69 q 106 132 103 107 q 110 178 110 157 l 110 917 l 303 917 z "},"K":{"ha":792,"x_min":69,"x_max":789,"o":"m 576 406 q 597 367 583 392 q 626 310 610 342 q 660 244 642 279 q 697 175 679 210 q 789 0 740 93 l 631 0 q 581 15 600 0 q 547 58 561 31 q 515 124 536 81 q 469 216 493 167 q 422 312 444 265 q 385 386 399 358 q 358 429 371 414 q 332 451 344 444 q 308 459 319 458 q 288 460 297 460 l 263 460 l 263 0 l 69 0 l 69 919 l 263 919 l 263 478 q 383 542 328 494 q 475 653 439 590 q 526 787 511 717 q 525 917 540 857 q 613 915 574 921 q 672 893 644 910 q 699 840 699 876 q 665 747 699 799 q 581 644 632 694 q 467 551 529 594 q 349 483 406 508 l 457 483 q 528 463 496 483 q 576 406 560 442 z "},"L":{"ha":672,"x_min":69,"x_max":663,"o":"m 663 0 l 69 0 l 69 919 l 263 919 l 263 25 l 417 25 q 524 51 482 25 q 591 111 567 76 q 625 181 615 146 q 635 232 635 215 l 663 232 l 663 0 z "},"M":{"ha":1061,"x_min":69,"x_max":990,"o":"m 797 0 l 799 815 l 501 19 q 482 6 494 6 q 464 18 471 6 l 101 801 l 101 688 q 133 431 101 550 q 204 224 165 313 q 277 81 243 135 q 315 19 311 28 q 315 6 319 13 q 304 0 311 0 l 99 0 q 78 9 86 0 q 69 29 69 18 l 69 919 l 242 919 q 279 896 268 919 l 560 279 l 794 900 q 822 919 801 919 l 990 919 l 990 0 l 797 0 z "},"N":{"ha":851,"x_min":68,"x_max":783,"o":"m 782 890 q 782 451 782 646 q 782 289 782 368 q 783 147 782 210 q 783 43 783 83 q 783 0 783 3 l 750 0 l 100 811 l 100 688 q 132 431 100 550 q 203 224 164 313 q 276 81 242 135 q 314 19 310 28 q 315 6 318 13 q 303 0 311 0 l 97 0 q 77 8 86 0 q 68 29 68 17 l 68 919 l 272 919 l 744 333 q 701 553 733 453 q 633 729 668 654 q 569 849 597 804 q 536 901 540 894 q 536 914 532 908 q 547 919 540 919 l 753 919 q 774 911 765 919 q 782 890 782 903 z "},"O":{"ha":1013,"x_min":26,"x_max":985,"o":"m 489 938 q 676 900 588 938 q 831 798 764 863 q 938 647 897 733 q 982 461 979 560 q 953 278 985 365 q 854 124 921 192 q 704 21 789 57 q 524 -15 619 -15 q 337 22 425 -15 q 181 124 249 60 q 74 276 114 189 q 29 461 33 363 q 59 644 26 557 q 157 799 92 731 q 308 901 224 865 q 489 938 393 938 m 683 46 q 761 117 732 67 q 799 238 790 168 q 793 392 807 308 q 743 561 779 475 q 671 695 713 635 q 582 798 629 756 q 486 864 535 840 q 392 888 438 888 q 332 876 358 888 q 254 805 283 856 q 217 684 225 754 q 222 531 208 614 q 272 361 236 447 q 345 227 304 288 q 433 124 386 167 q 528 57 479 81 q 622 33 576 33 q 683 46 654 33 z "},"P":{"ha":746,"x_min":69,"x_max":726,"o":"m 394 919 q 551 899 488 919 q 653 844 614 879 q 709 764 692 810 q 726 667 726 718 q 692 526 726 582 q 604 437 657 469 q 488 391 551 404 q 367 378 424 378 q 263 389 307 378 l 263 0 l 69 0 l 69 919 l 394 919 m 263 413 q 329 404 296 404 q 411 420 374 404 q 476 467 449 436 q 520 545 504 499 q 536 653 536 592 q 527 733 536 690 q 497 813 518 776 q 438 872 475 849 q 343 896 400 896 l 263 896 l 263 413 z "},"Q":{"ha":1014,"x_min":26,"x_max":986,"o":"m 640 -67 q 726 -106 685 -90 q 818 -121 767 -121 q 884 -110 857 -121 q 918 -81 911 -100 l 931 -81 q 911 -124 924 -100 q 878 -168 899 -147 q 827 -203 857 -189 q 756 -217 797 -217 q 653 -192 696 -217 q 565 -132 611 -168 q 501 -87 532 -107 q 438 -60 469 -67 q 397 -65 414 -56 q 382 -75 389 -69 l 375 -69 q 413 -37 394 -50 q 458 -21 431 -25 q 294 33 371 -8 q 159 137 217 74 q 67 281 101 200 q 29 451 32 361 q 59 634 26 547 q 157 789 92 721 q 308 893 224 857 q 489 929 393 929 q 676 892 588 929 q 831 789 764 854 q 939 637 899 724 q 983 451 979 550 q 954 269 986 356 q 856 114 922 182 q 714 15 793 50 q 546 -25 635 -21 q 590 -40 569 -29 q 631 -61 611 -50 l 640 -67 m 271 351 q 344 217 303 278 q 431 114 385 157 q 526 47 478 71 q 621 24 575 24 q 682 36 653 24 q 760 108 731 57 q 797 228 789 158 q 792 382 806 299 q 743 551 779 465 q 671 685 713 625 q 582 789 629 746 q 486 856 535 832 q 392 879 438 879 q 331 867 360 879 q 253 795 282 846 q 215 674 224 744 q 221 521 207 604 q 271 351 235 438 z "},"R":{"ha":832,"x_min":69,"x_max":833,"o":"m 833 0 l 660 0 q 601 16 629 0 q 554 60 574 32 q 515 115 539 82 q 465 184 492 149 q 415 253 439 219 q 375 310 390 288 q 327 364 351 343 q 286 385 303 385 l 263 383 l 263 0 l 69 0 l 69 919 l 394 919 q 551 898 488 919 q 653 841 614 876 q 709 760 692 806 q 726 667 726 714 q 708 558 726 604 q 657 480 689 513 q 584 426 625 447 q 499 394 543 406 q 540 376 521 388 q 575 342 560 364 q 599 308 583 329 q 635 261 615 288 q 676 205 654 235 q 721 146 699 175 q 833 0 774 78 m 263 896 l 263 413 q 372 430 321 413 q 458 478 422 447 q 515 554 494 510 q 536 654 536 599 q 478 831 536 765 q 306 896 419 896 l 263 896 z "},"S":{"ha":746,"x_min":28,"x_max":718,"o":"m 439 557 q 538 497 488 528 q 628 431 588 467 q 693 353 668 394 q 718 261 718 311 q 698 151 718 201 q 636 65 678 100 q 530 9 594 29 q 375 -11 465 -11 q 284 -2 325 -11 q 210 22 243 7 q 150 56 176 36 q 103 94 124 75 q 28 200 56 140 l 139 318 q 148 321 143 322 q 156 314 153 319 q 173 271 161 299 q 202 210 185 243 q 241 144 219 178 q 288 83 263 111 q 344 38 314 56 q 406 21 374 21 q 482 49 450 21 q 514 139 514 78 q 496 201 514 172 q 448 259 478 231 q 379 315 418 288 q 299 368 340 342 q 209 428 253 397 q 131 494 165 458 q 76 570 97 529 q 54 661 54 611 q 79 781 54 729 q 146 868 104 833 q 240 921 188 903 q 347 939 293 939 q 506 913 443 939 q 607 856 569 888 q 675 771 651 818 q 635 728 654 747 q 601 694 618 711 q 575 671 585 678 q 535 656 554 656 q 496 671 511 656 q 476 701 481 686 q 452 769 467 732 q 417 840 438 807 q 367 894 396 872 q 303 917 339 917 q 247 883 269 917 q 233 798 225 850 q 288 682 240 746 q 439 557 335 618 z "},"T":{"ha":754,"x_min":10,"x_max":744,"o":"m 744 919 l 744 688 l 717 688 q 707 740 717 706 q 673 809 697 775 q 606 869 649 843 q 499 894 564 894 l 474 894 l 474 0 l 281 0 l 281 894 l 256 894 q 148 869 190 894 q 81 809 106 843 q 47 740 57 775 q 38 688 38 706 l 10 688 l 10 919 l 744 919 z "},"U":{"ha":819,"x_min":57,"x_max":761,"o":"m 761 919 l 761 381 q 733 187 761 264 q 658 65 704 110 q 553 3 611 21 q 433 -15 494 -15 q 238 25 311 -15 q 124 128 164 65 q 70 266 83 190 q 57 413 57 342 l 57 919 l 250 919 l 250 385 q 251 328 250 363 q 260 255 253 294 q 281 176 267 215 q 322 105 296 136 q 389 53 349 74 q 488 33 429 33 q 583 54 538 33 q 661 117 628 75 q 714 225 694 160 q 733 378 733 290 l 733 919 l 761 919 z "},"V":{"ha":790,"x_min":-3,"x_max":788,"o":"m 788 907 q 772 840 785 879 q 744 762 760 801 q 713 688 728 722 q 690 632 699 653 q 665 567 683 614 q 622 460 646 521 q 570 331 597 399 q 518 201 543 263 q 474 90 493 139 q 446 19 454 40 q 414 0 436 0 l 388 0 q 357 19 364 0 q 332 82 351 35 q 286 195 313 129 q 228 341 260 261 q 164 501 196 421 q -3 919 89 689 l 167 919 q 212 906 192 919 q 240 871 232 893 l 494 204 q 526 281 511 244 q 553 346 539 313 q 574 400 567 379 q 610 565 603 482 q 614 717 618 647 q 597 835 610 786 q 574 899 585 885 q 571 913 569 906 q 581 919 572 919 l 774 919 q 788 907 788 919 z "},"W":{"ha":1235,"x_min":-3,"x_max":1232,"o":"m 1218 919 q 1232 907 1232 919 q 1217 840 1229 879 q 1188 762 1204 801 q 1158 688 1172 722 q 1135 632 1143 653 q 1109 567 1128 614 q 1066 459 1090 519 q 1015 330 1042 399 q 963 199 988 261 q 918 89 938 138 q 890 19 899 40 q 858 0 882 0 l 832 0 q 801 19 808 0 q 775 82 793 38 q 732 188 757 126 q 678 319 707 249 q 622 461 650 390 q 570 332 597 400 q 518 201 543 264 q 474 90 493 139 q 446 19 454 42 q 415 0 438 0 l 388 0 q 357 19 365 0 q 332 82 351 35 q 286 195 313 129 q 228 341 260 261 q 164 501 196 421 q -3 919 89 689 l 167 919 q 212 906 192 919 q 240 871 232 893 l 494 204 q 539 318 518 263 q 577 415 558 365 q 608 497 596 465 q 561 617 589 546 q 508 757 533 689 q 446 919 478 835 l 611 919 q 656 906 636 919 q 685 871 676 893 l 939 204 q 971 281 956 244 q 997 346 983 313 q 1018 400 1011 379 q 1055 565 1047 482 q 1058 717 1063 647 q 1042 835 1054 786 q 1018 899 1029 885 q 1015 913 1013 906 q 1025 919 1017 919 l 1218 919 z "},"X":{"ha":817,"x_min":1,"x_max":819,"o":"m 629 1 q 575 32 593 1 q 528 106 557 60 q 466 203 499 151 q 401 307 433 256 q 344 397 369 358 q 277 291 306 351 q 233 174 249 231 q 213 75 217 118 q 219 19 210 32 q 223 6 225 13 q 214 0 221 0 l 39 0 q 29 3 33 0 q 26 13 25 7 q 47 58 28 28 q 93 128 65 89 q 155 210 121 167 q 222 293 189 253 q 283 367 254 333 q 329 421 313 401 l 1 921 l 200 921 q 254 892 233 921 q 295 823 269 865 q 350 733 321 781 q 408 638 379 685 q 458 558 438 592 q 523 659 497 604 q 562 764 549 714 q 576 852 575 814 q 565 903 576 890 q 563 916 561 910 q 572 922 564 922 l 746 922 q 760 910 760 922 q 740 865 758 894 q 696 800 722 836 q 637 724 669 764 q 574 648 604 685 q 516 581 543 611 q 474 535 489 551 q 520 463 494 503 q 574 378 546 422 q 632 290 603 335 q 688 203 661 244 q 819 1 751 104 l 629 1 z "},"Y":{"ha":757,"x_min":-8,"x_max":760,"o":"m 283 1 l 283 490 l -6 911 q -6 917 -8 914 q 0 921 -4 921 l 167 921 q 233 885 208 921 q 301 785 261 844 q 382 667 342 725 q 476 526 428 599 q 538 632 515 572 q 571 747 561 692 q 578 846 581 803 q 565 901 576 889 q 563 915 561 908 q 572 921 564 921 l 746 921 q 760 908 760 921 q 729 826 760 879 q 655 710 699 772 q 562 590 611 649 q 476 490 513 531 l 476 1 l 283 1 z "},"Z":{"ha":779,"x_min":8,"x_max":760,"o":"m 740 919 q 755 912 750 919 q 756 896 760 904 l 268 25 l 496 25 q 603 51 561 25 q 670 111 646 76 q 704 181 694 146 q 714 232 714 215 l 740 232 l 740 0 l 28 0 q 13 8 18 0 q 13 25 8 17 l 503 894 l 325 894 q 217 869 260 894 q 151 809 175 843 q 117 740 126 775 q 107 688 107 706 l 79 688 l 79 919 l 740 919 z "},"[":{"ha":424,"x_min":69,"x_max":354,"o":"m 69 -139 l 69 1031 l 354 1031 l 354 893 l 215 893 l 215 0 l 354 0 l 354 -139 l 69 -139 z "},"\\":{"ha":853,"x_min":69,"x_max":783,"o":"m 586 29 l 69 1026 l 267 1026 l 783 29 l 586 29 z "},"]":{"ha":425,"x_min":69,"x_max":354,"o":"m 69 -139 l 69 0 l 210 0 l 210 893 l 69 893 l 69 1031 l 354 1031 l 354 -139 l 69 -139 z "},"_":{"ha":875,"x_min":69,"x_max":806,"o":"m 69 -208 l 69 -54 l 806 -54 l 806 -208 l 69 -208 z "},"`":{"ha":294,"x_min":18,"x_max":254,"o":"m 254 764 l 164 764 l 18 940 l 169 940 l 254 764 z "},"a":{"ha":704,"x_min":35,"x_max":679,"o":"m 668 42 q 678 33 676 42 q 671 19 679 25 q 638 12 667 17 q 569 7 610 7 q 508 17 532 7 q 469 39 483 28 q 443 71 451 53 q 394 32 424 49 q 334 5 371 17 q 246 -7 297 -7 q 166 8 204 -7 q 99 49 128 22 q 52 110 69 75 q 35 189 35 146 q 48 268 35 235 q 82 326 61 301 q 131 367 103 350 q 188 394 158 383 q 221 406 201 400 q 261 421 240 413 q 302 440 282 429 q 338 468 322 451 q 368 523 361 493 q 369 580 375 553 q 344 626 363 607 q 296 650 325 646 q 237 640 261 654 q 197 599 213 625 q 174 538 182 572 q 167 469 167 504 l 65 486 q 167 643 96 596 q 357 690 239 690 q 451 681 404 690 q 537 644 499 671 q 599 569 575 617 q 624 446 624 521 l 624 132 q 624 105 624 121 q 628 75 624 89 q 641 51 632 61 q 668 42 650 42 m 344 46 q 384 53 368 46 q 411 68 400 60 q 433 89 424 76 q 431 103 432 96 q 426 139 426 118 l 426 435 q 423 483 426 463 q 417 519 419 504 q 406 549 411 536 q 383 478 403 511 q 336 426 363 444 q 286 392 310 408 q 245 351 263 375 q 217 295 228 328 q 207 214 207 263 q 248 87 207 128 q 344 46 289 46 z "},"b":{"ha":753,"x_min":64,"x_max":714,"o":"m 433 690 q 553 660 500 690 q 641 581 606 631 q 695 469 676 532 q 714 340 714 406 q 691 191 714 256 q 629 83 668 126 q 542 17 590 39 q 440 -6 493 -6 q 344 15 392 -6 q 257 75 297 35 l 257 7 l 64 7 l 64 928 l 257 928 l 257 785 q 255 738 257 767 q 247 676 253 710 q 231 609 242 643 q 203 547 221 575 q 201 529 196 536 q 213 535 206 522 q 252 584 229 557 q 303 635 275 611 q 364 674 331 658 q 433 690 397 690 m 381 44 q 435 62 410 44 q 479 117 460 79 q 510 213 499 154 q 521 351 521 271 q 515 465 521 413 q 494 557 510 518 q 454 617 479 596 q 389 639 429 639 q 332 619 357 639 q 290 571 307 600 q 265 508 274 542 q 257 449 257 475 l 257 114 q 303 69 272 93 q 381 44 335 44 z "},"c":{"ha":674,"x_min":35,"x_max":651,"o":"m 635 142 q 644 142 638 146 q 647 131 651 138 q 605 81 631 106 q 543 35 579 56 q 462 3 507 15 q 361 -6 417 -8 q 226 24 286 -1 q 124 93 167 49 q 58 200 81 138 q 35 340 35 263 q 60 479 35 415 q 129 590 85 543 q 235 662 174 636 q 371 688 297 688 q 515 656 461 688 q 599 588 568 625 q 647 488 633 543 l 492 463 q 465 525 485 488 q 419 594 446 563 q 359 645 392 626 q 292 653 326 664 q 240 608 258 643 q 217 526 222 572 q 218 431 213 481 q 238 340 224 381 q 293 224 261 274 q 360 143 325 175 q 433 96 396 111 q 506 81 471 81 q 580 97 550 81 q 635 142 610 114 z "},"d":{"ha":753,"x_min":38,"x_max":688,"o":"m 688 928 l 688 7 l 526 7 q 505 14 514 6 q 496 35 496 22 l 496 75 q 408 15 456 35 q 311 -6 360 -6 q 210 17 260 -6 q 122 83 161 39 q 60 191 83 126 q 38 340 38 256 q 56 469 38 406 q 110 581 75 532 q 199 660 146 631 q 318 690 251 690 q 388 674 356 690 q 449 635 421 658 q 500 584 478 611 q 539 535 522 557 q 551 529 547 522 q 549 547 556 536 q 520 609 531 575 q 504 676 510 643 q 497 738 499 710 q 496 785 496 767 l 496 928 l 688 928 m 496 449 q 487 508 496 475 q 461 571 478 542 q 419 619 444 600 q 363 639 394 639 q 298 617 324 639 q 258 557 272 596 q 237 465 243 518 q 231 351 231 413 q 242 213 231 271 q 272 117 253 154 q 317 62 292 79 q 372 44 343 44 q 448 69 417 44 q 496 114 479 93 l 496 449 z "},"e":{"ha":685,"x_min":32,"x_max":653,"o":"m 631 138 q 644 139 636 144 q 649 124 653 133 q 609 75 635 99 q 547 34 583 51 q 463 6 510 17 q 363 -6 417 -6 q 231 18 290 -6 q 129 86 172 42 q 62 193 86 131 q 35 332 38 256 q 54 470 32 406 q 121 583 76 535 q 365 688 214 688 q 483 667 432 688 q 568 616 533 647 q 622 548 603 585 q 643 478 642 511 q 639 413 646 443 q 614 361 632 383 q 566 326 596 339 q 492 314 536 314 q 457 315 475 314 q 419 321 439 317 q 368 322 392 326 q 328 307 344 318 q 303 278 311 296 q 297 238 294 260 q 321 181 300 210 q 373 128 342 151 q 442 90 404 104 q 517 78 479 75 q 589 99 561 81 q 631 138 617 118 m 264 276 q 285 315 269 297 q 322 345 299 331 q 385 367 346 360 q 442 396 422 372 q 467 451 463 419 q 463 519 471 483 q 436 585 454 554 q 391 635 418 615 q 332 654 364 654 q 262 630 288 654 q 225 569 236 606 q 214 487 214 532 q 222 400 214 442 q 241 324 229 358 q 264 276 253 290 z "},"f":{"ha":378,"x_min":22,"x_max":464,"o":"m 239 939 q 331 937 289 950 q 401 904 372 924 q 464 849 436 881 q 442 801 454 822 q 415 769 431 783 q 376 754 399 754 q 319 781 342 754 q 278 837 296 807 q 244 888 260 867 q 210 900 229 910 q 201 857 194 893 q 249 763 207 821 q 268 728 260 747 q 278 674 276 710 l 346 674 q 360 669 357 674 q 364 658 364 664 q 361 649 364 654 q 347 644 358 644 l 278 644 l 278 7 l 85 7 l 86 644 l 40 644 q 22 660 22 644 q 40 674 22 674 l 86 674 l 86 736 q 102 825 86 789 q 141 885 118 861 q 190 922 164 910 q 239 939 217 935 z "},"g":{"ha":688,"x_min":38,"x_max":664,"o":"m 653 18 q 651 -85 664 -35 q 601 -175 638 -135 q 509 -240 565 -215 q 378 -264 453 -264 q 276 -255 322 -264 q 194 -231 229 -246 q 135 -199 158 -217 q 101 -167 113 -182 l 317 -106 q 388 -187 349 -164 q 467 -210 426 -210 q 523 -199 496 -210 q 571 -169 550 -187 q 604 -128 592 -151 q 617 -81 617 -104 q 591 -31 617 -46 q 532 -17 565 -17 q 493 -21 513 -17 q 436 -36 474 -26 q 358 -57 399 -46 q 281 -78 317 -68 q 229 -92 246 -87 q 210 -97 222 -94 q 184 -102 197 -100 q 159 -106 171 -104 q 140 -108 147 -108 q 70 -84 96 -108 q 44 -15 44 -60 q 61 56 44 18 q 99 126 78 94 q 151 201 121 164 l 142 208 q 93 255 113 229 q 61 308 74 281 q 43 364 49 336 q 38 415 38 392 q 59 513 38 464 q 119 600 81 561 q 213 663 158 639 q 332 688 267 688 q 420 676 379 688 q 479 654 461 665 q 511 678 494 668 q 545 694 526 688 q 585 701 564 701 q 626 690 604 701 q 649 665 644 681 q 647 636 653 650 q 630 612 642 622 q 603 601 618 601 q 557 640 579 631 q 519 649 535 649 q 500 646 508 649 q 493 643 496 644 q 586 541 556 603 q 617 415 617 479 q 593 308 617 356 q 531 226 569 260 q 440 174 492 192 q 332 156 389 156 q 172 190 238 156 q 144 153 157 171 q 124 120 133 138 q 115 90 115 103 q 126 69 115 81 q 164 64 138 58 q 209 74 178 67 q 278 91 240 82 q 358 110 317 100 q 435 128 400 119 q 497 136 468 136 q 597 107 556 136 q 653 18 639 78 m 228 626 q 231 381 188 560 q 292 239 253 289 q 381 189 332 189 q 407 193 394 189 q 446 231 435 203 q 457 297 457 258 q 449 379 457 335 q 431 465 442 424 q 401 548 418 511 q 363 610 383 585 q 319 649 342 636 q 275 658 297 661 q 228 626 246 657 z "},"h":{"ha":681,"x_min":63,"x_max":619,"o":"m 454 689 q 522 675 492 689 q 574 639 553 661 q 608 589 596 617 q 619 532 619 561 l 619 8 l 428 8 l 428 181 q 438 290 426 236 q 475 393 449 344 q 508 490 504 446 q 499 567 511 535 q 460 616 486 599 q 406 633 435 633 q 351 621 378 633 q 301 593 324 608 q 256 551 278 575 l 256 8 l 63 8 l 63 926 l 208 926 q 242 913 228 926 q 256 879 256 899 l 256 588 q 284 619 268 601 q 324 652 300 636 q 379 678 347 668 q 454 689 411 689 z "},"i":{"ha":318,"x_min":63,"x_max":256,"o":"m 158 731 q 90 758 118 731 q 63 825 63 785 q 90 893 63 865 q 158 921 118 921 q 226 893 199 921 q 254 825 254 865 q 226 758 254 785 q 158 731 199 731 m 208 674 q 242 660 228 674 q 256 626 256 646 l 256 8 l 63 8 l 63 674 l 208 674 z "},"j":{"ha":321,"x_min":-35,"x_max":258,"o":"m 163 731 q 94 758 122 731 q 67 825 67 785 q 94 893 67 865 q 163 921 122 921 q 231 893 203 921 q 258 825 258 865 q 231 758 258 785 q 163 731 203 731 m 206 674 q 242 658 226 674 q 257 622 257 643 l 258 -76 q 223 -199 258 -153 q 104 -246 188 -246 q 33 -228 67 -246 q -21 -194 0 -211 q -28 -174 -35 -183 q -10 -171 -21 -165 q 8 -175 1 -175 q 35 -163 24 -175 q 52 -133 46 -151 q 61 -93 58 -114 q 64 -53 64 -72 l 64 674 l 206 674 z "},"k":{"ha":642,"x_min":63,"x_max":614,"o":"m 339 489 q 336 423 322 457 q 381 353 350 389 q 451 277 411 317 q 528 194 492 238 q 589 104 564 151 q 614 7 614 57 l 422 7 q 395 130 422 75 q 339 235 368 185 q 292 335 310 285 q 294 443 275 385 q 275 419 285 433 q 256 388 265 404 l 256 8 l 63 8 l 63 926 l 208 926 q 242 913 228 926 q 256 879 256 899 l 256 440 q 350 557 301 506 q 393 600 371 579 q 439 638 415 621 q 486 664 463 654 q 531 674 510 674 q 591 651 576 674 q 604 600 606 628 q 588 526 604 568 q 479 556 543 556 q 396 540 435 556 q 339 489 357 524 z "},"l":{"ha":318,"x_min":63,"x_max":256,"o":"m 208 926 q 242 913 228 926 q 256 879 256 899 l 256 8 l 63 8 l 63 926 l 208 926 z "},"m":{"ha":1021,"x_min":63,"x_max":960,"o":"m 794 688 q 863 674 832 688 q 915 638 893 660 q 948 589 936 617 q 960 532 960 561 l 960 8 l 768 8 l 768 181 q 778 290 767 236 q 815 392 789 343 q 848 490 844 446 q 839 567 851 535 q 801 616 826 599 q 746 633 775 633 q 702 626 724 633 q 663 606 681 618 q 630 583 644 594 q 607 563 615 571 q 609 547 608 556 q 610 532 610 539 l 610 8 l 417 8 l 417 181 q 428 290 417 236 q 465 392 439 343 q 498 490 494 446 q 488 567 501 535 q 449 616 475 599 q 394 633 424 633 q 341 621 367 633 q 296 593 315 608 q 256 551 274 575 l 256 8 l 63 8 l 63 674 l 208 674 q 242 660 228 674 q 256 626 256 646 l 256 594 q 307 642 278 621 q 365 673 331 658 q 443 688 400 688 q 537 660 499 688 q 594 596 575 633 q 628 626 608 610 q 674 656 649 642 q 729 678 699 669 q 794 688 760 688 z "},"n":{"ha":681,"x_min":63,"x_max":619,"o":"m 454 688 q 522 674 492 688 q 574 638 553 660 q 608 589 596 617 q 619 532 619 561 l 619 8 l 428 8 l 428 181 q 438 290 426 236 q 475 392 449 343 q 508 490 504 446 q 499 567 511 535 q 460 616 486 599 q 406 633 435 633 q 351 621 378 633 q 301 593 324 608 q 256 551 278 575 l 256 8 l 63 8 l 63 674 l 208 674 q 242 660 228 674 q 256 626 256 646 l 256 586 q 284 617 268 600 q 324 651 300 635 q 379 677 347 667 q 454 688 411 688 z "},"o":{"ha":731,"x_min":31,"x_max":699,"o":"m 663 474 q 696 338 693 407 q 678 208 699 269 q 615 96 658 146 q 511 18 572 46 q 383 -10 447 -10 q 288 5 335 -10 q 200 47 242 19 q 124 115 158 75 q 67 204 90 154 q 33 340 36 271 q 51 472 31 410 q 115 583 72 533 q 219 660 158 632 q 346 688 282 688 q 441 673 394 688 q 529 631 488 658 q 606 563 571 603 q 663 474 640 524 m 501 38 q 533 81 524 49 q 538 161 542 114 q 518 267 535 208 q 474 389 501 326 q 419 492 449 444 q 358 573 389 539 q 299 626 328 607 q 247 644 271 644 q 228 640 236 644 q 197 598 206 631 q 192 518 188 565 q 212 412 196 471 q 257 290 228 353 q 318 177 285 228 q 385 92 351 126 q 449 42 418 57 q 501 38 479 28 z "},"p":{"ha":750,"x_min":61,"x_max":711,"o":"m 254 606 q 342 666 294 646 q 438 686 389 686 q 539 664 490 686 q 626 598 588 642 q 688 490 665 554 q 711 340 711 425 q 692 212 711 275 q 638 99 674 149 q 550 20 603 50 q 431 -10 497 -10 q 361 6 394 -10 q 300 46 328 22 q 249 97 272 69 q 210 146 226 124 q 197 151 201 158 q 200 133 193 144 q 228 72 218 106 q 244 4 239 38 q 252 -58 250 -29 q 254 -104 254 -86 l 254 -246 l 61 -246 l 61 597 q 128 628 96 614 q 181 653 154 640 q 224 671 208 665 q 247 672 239 678 q 254 657 254 667 l 254 606 m 386 42 q 451 64 426 42 q 492 124 476 86 q 513 215 507 163 q 518 329 518 268 q 507 469 518 411 q 476 564 496 526 q 432 619 457 601 q 378 636 407 636 q 301 612 332 636 q 254 567 269 588 l 254 232 q 263 172 254 206 q 288 110 271 139 q 329 61 304 81 q 386 42 354 42 z "},"q":{"ha":753,"x_min":38,"x_max":688,"o":"m 688 674 l 688 -246 l 496 -246 l 496 -104 q 497 -58 496 -86 q 504 4 499 -29 q 520 72 510 38 q 549 133 531 106 q 551 151 556 144 q 539 146 547 158 q 500 97 522 124 q 449 46 478 69 q 388 6 421 22 q 318 -10 356 -10 q 199 20 251 -10 q 110 99 146 50 q 56 212 75 149 q 38 340 38 275 q 60 488 38 424 q 122 597 83 553 q 210 663 161 640 q 311 686 260 686 q 444 647 383 686 q 525 625 479 625 q 575 633 550 625 l 688 674 m 363 42 q 419 61 394 42 q 461 110 444 81 q 487 172 478 139 q 496 232 496 206 l 496 567 q 448 612 479 588 q 372 636 417 636 q 317 619 343 636 q 272 564 292 601 q 242 469 253 526 q 231 329 231 411 q 237 215 231 268 q 258 124 243 163 q 298 64 272 86 q 363 42 324 42 z "},"r":{"ha":547,"x_min":63,"x_max":543,"o":"m 411 688 q 456 680 433 688 q 499 663 479 672 q 543 638 521 651 l 518 588 q 482 547 507 564 q 432 529 457 529 q 396 543 411 529 q 357 576 374 564 q 321 589 340 589 q 256 564 294 589 l 256 7 l 63 7 l 63 674 l 208 674 q 242 660 228 674 q 256 626 256 646 l 256 603 q 281 631 267 615 q 315 658 296 646 q 359 679 335 671 q 411 688 383 688 z "},"s":{"ha":628,"x_min":25,"x_max":599,"o":"m 500 326 q 536 298 517 315 q 570 257 556 281 q 592 204 585 233 q 590 139 599 175 q 564 87 585 113 q 508 40 543 61 q 426 7 474 19 q 319 -6 379 -6 q 218 11 265 -6 q 133 49 171 28 q 70 93 96 71 q 33 128 44 115 q 32 147 25 136 l 121 261 q 127 264 124 264 q 132 261 131 264 q 160 202 140 243 q 211 119 181 161 q 280 47 242 78 q 361 15 318 15 q 417 33 399 15 q 437 78 436 51 q 420 135 438 106 q 368 189 403 165 q 310 228 342 207 q 249 269 279 249 q 192 309 219 290 q 146 340 165 328 q 108 373 129 351 q 73 423 88 394 q 54 487 58 451 q 67 561 50 522 q 105 618 81 594 q 158 658 129 642 q 218 681 188 674 q 275 688 249 688 q 426 670 367 688 q 519 631 485 653 q 582 574 560 606 q 559 544 572 560 q 531 516 546 529 q 500 494 517 503 q 464 485 483 485 q 399 519 421 485 q 323 622 358 582 q 251 661 288 661 q 217 650 235 661 q 193 620 200 640 q 191 576 186 600 q 214 528 196 553 q 265 481 232 503 q 320 444 288 465 q 386 401 353 422 q 451 359 419 379 q 500 326 482 339 z "},"t":{"ha":382,"x_min":28,"x_max":369,"o":"m 344 71 q 363 66 356 75 q 356 46 369 57 q 301 12 335 29 q 231 -6 268 -6 q 112 41 147 -6 q 76 165 76 88 l 76 644 l 46 644 q 28 660 28 644 q 46 674 28 674 l 69 674 q 135 690 106 674 q 188 732 165 707 q 226 786 210 757 q 250 839 242 815 l 271 839 l 271 674 l 326 674 q 341 669 338 674 q 344 658 344 664 q 342 649 344 654 q 328 644 339 644 l 271 644 l 271 188 q 274 148 271 169 q 283 108 276 126 q 299 78 289 90 q 325 67 310 67 q 344 71 335 67 z "},"u":{"ha":682,"x_min":60,"x_max":617,"o":"m 617 674 l 617 7 l 472 7 q 439 21 453 7 q 425 54 425 35 l 425 96 q 396 64 413 82 q 356 31 379 46 q 301 5 333 15 q 226 -6 269 -6 q 157 8 188 -6 q 105 44 126 22 q 72 93 83 65 q 60 150 60 121 l 60 674 l 253 674 l 253 501 q 242 392 253 446 q 204 290 231 339 q 172 192 175 236 q 181 115 168 147 q 220 66 194 83 q 275 49 246 49 q 331 62 304 49 q 379 90 358 75 q 425 131 403 107 l 425 674 l 617 674 z "},"v":{"ha":615,"x_min":7,"x_max":604,"o":"m 590 674 q 604 660 604 674 q 589 594 601 632 q 560 516 576 556 q 530 442 544 476 q 507 386 515 407 q 476 310 496 358 q 436 210 457 263 q 394 108 415 158 q 361 26 374 58 q 329 7 353 7 l 303 7 q 272 26 279 7 q 251 78 267 42 q 217 163 236 114 q 174 268 197 211 q 126 382 150 325 q 7 674 72 514 l 179 674 q 225 660 204 674 q 254 624 246 647 l 410 211 q 422 242 415 224 q 438 279 429 257 q 457 331 446 301 q 475 431 476 381 q 463 526 474 482 q 437 605 453 571 q 410 653 421 639 q 407 667 406 660 q 417 674 408 674 l 590 674 z "},"w":{"ha":979,"x_min":7,"x_max":968,"o":"m 954 674 q 968 660 968 674 q 953 594 965 632 q 924 516 940 556 q 894 442 908 476 q 871 386 879 407 q 840 310 860 358 q 800 210 821 263 q 758 108 779 158 q 725 26 738 58 q 693 7 717 7 l 667 7 q 636 26 643 7 q 616 76 631 42 q 583 156 601 110 q 542 256 564 201 q 497 364 519 310 q 467 286 485 332 q 429 192 449 240 q 392 100 410 144 q 361 26 374 56 q 329 7 353 7 l 303 7 q 272 26 279 7 q 251 78 267 42 q 217 163 236 114 q 174 268 197 211 q 126 382 150 325 q 7 674 72 514 l 179 674 q 225 660 204 674 q 254 624 246 647 l 410 211 q 422 242 415 224 q 438 279 429 257 q 457 331 446 301 q 474 421 474 376 q 435 518 454 472 q 401 599 417 564 q 371 674 385 639 l 544 674 q 590 660 569 674 q 618 624 610 647 l 774 211 q 786 242 779 224 q 801 279 793 257 q 821 331 810 301 q 840 431 840 381 q 828 526 839 482 q 802 605 818 571 q 775 653 786 639 q 772 667 769 660 q 781 674 774 674 l 954 674 z "},"x":{"ha":665,"x_min":6,"x_max":657,"o":"m 419 378 q 449 333 432 360 q 484 277 465 307 q 523 216 503 247 q 563 154 543 185 q 657 7 608 83 l 510 7 q 447 23 476 7 q 400 67 418 39 q 369 117 386 90 q 337 169 353 143 q 308 215 321 194 q 286 249 294 236 q 257 177 267 213 q 246 111 247 142 q 250 58 244 81 q 264 26 256 36 q 267 13 268 19 q 257 7 265 7 l 83 7 q 69 19 69 7 q 92 69 72 38 q 141 138 113 100 q 202 213 169 175 q 264 283 235 251 l 6 674 l 185 674 q 222 664 204 674 q 251 638 240 654 q 288 581 267 614 q 330 516 308 549 q 370 455 351 483 q 400 410 389 426 q 435 488 424 449 q 448 560 446 526 q 445 618 450 593 q 431 654 440 643 q 428 667 426 660 q 438 674 431 674 l 611 674 q 625 661 625 674 q 601 607 622 642 q 548 532 579 572 q 482 451 517 492 q 419 378 447 410 z "},"y":{"ha":610,"x_min":-11,"x_max":600,"o":"m 585 674 q 597 660 600 674 q 582 594 594 632 q 554 516 569 556 q 524 442 539 476 q 501 386 510 407 q 476 322 492 361 q 442 238 460 283 q 405 148 424 193 q 371 67 386 103 q 357 32 364 49 q 346 4 351 18 q 338 -17 340 -10 q 246 -184 296 -125 q 114 -243 196 -243 q 72 -236 92 -243 q 35 -219 51 -229 q 6 -197 18 -208 q -11 -178 -6 -186 l 63 -29 q 106 -64 83 -49 q 151 -87 125 -76 q 203 -97 176 -97 q 260 -80 232 -97 q 313 -15 289 -62 q 317 -6 315 -11 q 322 7 319 0 l 297 7 q 265 26 274 7 q 245 78 260 42 q 211 163 231 114 q 169 268 192 211 q 124 382 146 325 q 7 674 69 514 l 174 674 q 219 660 199 674 q 249 624 240 647 l 404 211 q 417 242 410 224 q 432 279 424 257 q 451 331 440 301 q 469 431 471 381 q 458 526 468 482 q 431 605 447 571 q 404 653 415 639 q 401 667 400 660 q 411 674 403 674 l 585 674 z "},"z":{"ha":644,"x_min":25,"x_max":608,"o":"m 607 239 l 607 7 l 44 7 q 30 15 35 7 q 29 32 25 24 l 353 649 l 303 649 q 195 623 238 649 q 128 563 153 597 q 94 493 104 528 q 85 442 85 458 l 58 442 l 58 674 l 589 674 q 603 665 599 674 q 604 649 608 657 l 285 32 l 361 32 q 470 58 428 32 q 537 118 513 83 q 570 188 561 153 q 579 239 579 222 l 607 239 z "},"{":{"ha":388,"x_min":46,"x_max":450,"o":"m 358 -139 q 270 -117 307 -139 q 211 -63 233 -96 q 178 7 189 -31 q 168 75 168 44 l 168 88 q 169 158 169 108 q 167 265 169 208 q 149 332 164 306 q 115 373 133 358 q 82 394 97 388 q 65 400 67 400 l 46 406 l 46 479 l 64 485 q 81 492 65 485 q 114 515 96 499 q 148 558 132 531 q 167 626 164 585 q 169 732 169 683 q 168 804 169 781 l 168 818 q 178 885 168 849 q 211 955 189 922 q 270 1009 233 988 q 358 1031 307 1031 l 450 1031 l 450 935 l 419 938 q 414 939 417 938 l 399 939 q 311 885 311 939 l 311 742 q 311 699 311 733 q 305 620 311 664 q 283 531 299 576 q 238 456 268 486 l 229 447 l 238 440 q 278 381 264 415 q 301 311 293 346 q 310 249 308 276 q 311 211 311 221 l 311 13 q 399 -42 311 -42 q 414 -41 408 -42 q 421 -40 419 -40 l 450 -37 l 450 -139 l 358 -139 z "},"|":{"ha":293,"x_min":69,"x_max":224,"o":"m 69 -139 l 69 993 l 224 993 l 224 -139 l 69 -139 z "},"}":{"ha":392,"x_min":-60,"x_max":344,"o":"m -60 -42 l -29 -46 q -24 -47 -26 -46 l -8 -47 q 79 7 79 -47 l 79 151 q 79 194 79 160 q 85 272 79 228 q 107 361 92 315 q 153 438 122 407 l 161 444 l 153 453 q 112 513 126 478 q 90 581 97 547 q 81 644 83 615 q 79 682 79 672 l 79 879 q -8 933 79 933 l -29 933 l -60 929 l -60 1031 l 32 1031 q 121 1009 85 1031 q 179 955 157 988 q 212 885 201 922 q 222 818 222 849 l 222 804 q 221 734 221 783 q 224 626 221 685 q 242 560 226 586 q 275 519 257 533 q 308 498 293 504 q 325 492 324 492 l 344 488 l 344 414 l 326 408 q 307 399 322 407 q 274 375 292 392 q 242 332 257 358 q 224 265 226 306 q 221 160 221 208 q 222 88 221 111 l 222 75 q 212 7 222 44 q 179 -63 201 -31 q 121 -117 157 -96 q 32 -139 85 -139 l -60 -139 l -60 -42 z "},"":{"ha":436,"x_min":0,"x_max":0,"o":""},"":{"ha":275,"x_min":58,"x_max":215,"o":"m 136 625 q 82 648 104 625 q 60 703 60 671 q 82 757 60 735 q 136 779 104 779 q 190 757 168 779 q 213 703 213 735 q 190 648 213 671 q 136 625 168 625 m 160 554 q 190 265 178 396 q 201 154 196 210 q 209 52 206 99 q 214 -28 213 6 q 213 -74 215 -61 q 189 -119 208 -100 q 136 -139 169 -139 q 85 -118 107 -139 q 60 -69 64 -97 q 60 -15 58 -51 q 65 69 61 22 q 74 171 68 117 q 86 279 81 225 q 122 554 101 406 l 160 554 z "},"":{"ha":769,"x_min":53,"x_max":719,"o":"m 719 276 l 717 261 q 683 172 706 213 l 682 168 l 681 167 l 681 165 q 572 47 638 92 q 418 -4 506 3 l 418 -278 l 354 -278 l 354 -6 l 349 -6 q 335 -3 342 -4 q 322 -1 329 -3 l 318 0 q 210 44 260 13 q 126 119 161 75 q 72 219 92 164 q 53 333 53 274 q 71 443 53 390 q 121 540 89 496 q 198 615 153 583 q 297 663 243 647 q 317 667 303 664 q 354 672 332 669 l 354 915 l 418 915 l 418 674 q 499 663 457 674 q 577 631 540 651 q 641 578 614 610 q 676 506 668 547 q 682 482 681 494 q 683 458 683 469 q 651 370 683 406 q 565 335 619 335 q 513 350 540 336 q 475 388 486 364 q 456 457 456 418 q 460 485 456 472 l 464 506 q 468 521 467 517 q 469 543 469 528 q 467 563 469 550 q 458 590 465 576 q 437 613 450 603 q 401 622 424 622 q 360 604 378 622 q 330 558 342 586 q 312 494 318 529 q 306 424 306 458 q 352 214 306 290 q 500 138 399 138 q 591 159 556 138 q 647 207 626 181 q 686 276 672 238 l 719 276 z "},"":{"ha":839,"x_min":54,"x_max":788,"o":"m 82 118 q 156 192 129 149 q 176 234 168 211 q 187 285 185 257 q 183 347 189 314 q 158 418 176 381 l 54 418 l 54 475 l 142 475 q 127 526 133 503 q 115 574 121 550 q 111 705 99 640 q 163 820 124 769 q 266 903 201 871 q 418 935 331 935 q 476 935 443 935 q 546 929 508 936 q 622 904 583 922 q 696 847 661 886 q 753 771 728 813 q 788 699 779 729 l 669 643 q 610 769 644 714 q 577 815 596 793 q 537 854 558 838 q 489 881 515 871 q 433 888 463 890 q 375 867 403 885 q 328 817 347 850 q 305 739 310 785 q 314 632 300 693 q 331 558 324 596 q 350 489 339 521 l 600 489 l 600 431 l 361 431 q 369 346 371 388 q 357 267 367 304 q 333 198 347 229 q 304 144 319 167 q 392 158 346 158 q 478 151 436 158 q 563 144 521 144 q 649 160 607 144 q 733 221 692 175 l 776 51 q 768 42 776 50 q 742 24 760 33 q 695 6 724 14 q 625 -1 667 -1 q 549 6 592 -1 q 451 31 506 13 q 369 43 413 43 q 288 35 328 43 q 218 15 249 26 q 150 -14 182 1 l 82 118 z "},"":{"ha":1076,"x_min":69,"x_max":1044,"o":"m 1044 919 l 1044 846 q 977 832 1001 846 q 931 785 953 818 l 701 401 l 928 401 l 928 338 l 700 338 l 700 251 l 928 251 l 928 188 l 700 188 l 700 174 q 736 101 703 128 q 806 74 769 74 l 806 0 l 338 0 l 338 74 q 374 81 356 74 q 408 102 393 89 q 433 135 424 115 q 443 179 443 154 l 443 188 l 238 188 l 238 251 l 443 251 l 443 338 l 238 338 l 238 401 l 414 401 l 208 747 q 151 817 179 789 q 69 846 122 846 l 69 919 l 544 919 l 544 846 q 513 840 526 846 q 494 821 500 833 q 490 789 488 808 q 508 743 493 769 l 664 482 l 819 746 q 837 781 829 763 q 844 813 844 799 q 832 837 843 828 q 793 846 821 846 l 793 919 l 1044 919 z "},"":{"ha":660,"x_min":51,"x_max":601,"o":"m 488 296 q 572 217 543 263 q 597 97 601 168 q 518 -74 593 0 q 423 -125 476 -111 q 314 -139 369 -139 q 215 -125 257 -139 q 142 -89 172 -111 q 93 -39 111 -67 q 67 17 75 -11 q 75 99 51 71 q 132 128 99 128 q 167 119 150 128 q 197 92 185 111 q 213 58 208 76 q 222 20 218 39 q 230 -17 225 1 q 244 -49 235 -35 q 274 -77 257 -67 q 306 -92 290 -87 q 336 -99 322 -97 q 357 -100 350 -100 q 408 -90 388 -100 q 443 -66 429 -79 q 465 -38 457 -53 q 475 -15 472 -24 q 483 51 486 13 q 461 107 479 83 q 433 135 451 122 q 393 158 414 147 q 351 178 372 169 q 313 193 329 188 q 229 231 272 210 q 151 280 186 251 q 94 347 117 308 q 69 435 71 385 q 132 582 69 522 q 238 633 176 618 q 231 638 232 636 q 69 843 72 717 q 132 990 69 931 q 317 1053 206 1053 q 519 961 464 1053 q 533 913 533 938 q 514 867 533 888 q 467 846 496 846 q 423 860 444 846 q 389 906 401 875 q 371 949 379 928 q 351 985 363 969 q 321 1010 339 1001 q 275 1018 303 1019 q 242 1007 261 1017 q 208 979 222 997 q 188 935 193 961 q 193 875 182 908 q 203 850 197 861 q 219 828 208 839 q 349 763 247 800 q 488 703 451 725 q 572 625 542 672 q 597 506 601 576 q 563 388 594 439 q 472 304 531 336 q 481 299 476 301 q 488 296 485 297 m 219 419 q 349 354 247 392 q 388 340 369 347 q 421 326 406 333 q 458 362 446 342 q 475 393 471 382 q 483 460 486 421 q 461 515 479 492 q 392 567 436 546 q 313 601 349 588 q 294 608 301 607 q 275 610 288 610 q 242 599 261 608 q 208 571 222 589 q 188 526 193 553 q 193 467 182 500 q 203 442 197 453 q 219 419 208 431 z "},"":{"ha":438,"x_min":42,"x_max":394,"o":"m 42 764 l 42 893 l 160 893 l 160 764 l 42 764 m 276 764 l 276 893 l 394 893 l 394 764 l 276 764 z "},"":{"ha":1047,"x_min":56,"x_max":990,"o":"m 524 939 q 705 903 619 939 q 853 804 790 867 q 953 658 917 742 q 990 479 990 574 q 953 300 990 383 q 853 154 917 217 q 705 56 790 92 q 524 19 619 19 q 342 56 426 19 q 193 154 257 92 q 92 300 129 217 q 56 479 56 383 q 92 658 56 574 q 193 804 129 742 q 342 903 257 867 q 524 939 426 939 m 524 74 q 685 106 610 74 q 815 192 760 138 q 903 322 871 247 q 936 479 936 396 q 903 637 936 563 q 815 766 871 711 q 685 853 760 821 q 524 885 610 885 q 363 853 439 885 q 231 766 288 821 q 142 637 175 711 q 110 479 110 563 q 142 322 110 396 q 231 192 175 247 q 363 106 288 138 q 524 74 439 74 m 763 432 l 760 419 q 752 394 758 411 q 736 358 746 378 q 713 317 726 338 q 682 281 700 297 q 645 250 664 264 q 603 227 626 236 q 551 213 581 218 q 481 210 521 208 q 466 211 478 210 q 450 214 454 213 l 446 214 q 362 249 400 224 q 295 309 324 274 q 251 388 267 344 q 236 478 236 432 q 258 586 236 536 q 318 672 281 636 q 406 727 356 707 q 513 747 456 747 q 580 740 546 747 q 644 715 614 732 q 697 674 674 699 q 729 614 719 649 q 733 594 732 603 q 735 575 735 585 q 709 506 735 535 q 640 478 683 478 q 578 508 601 481 q 554 574 554 536 q 557 597 554 583 l 561 613 q 564 625 564 626 q 565 643 565 631 q 563 658 565 649 q 556 678 561 668 q 540 697 550 689 q 511 704 529 704 q 478 690 493 704 q 455 654 464 676 q 441 604 446 632 q 436 549 436 576 q 473 383 436 443 q 589 324 510 324 q 662 341 633 324 q 707 378 690 358 q 736 432 726 401 l 763 432 z "},"":{"ha":768,"x_min":43,"x_max":724,"o":"m 224 401 l 443 139 l 268 139 l 46 397 q 45 399 46 399 q 44 400 44 399 l 43 401 q 46 407 43 401 l 271 664 l 443 664 l 224 401 m 504 401 l 724 139 l 547 139 l 326 397 l 324 400 q 324 401 324 400 q 326 407 324 401 l 550 664 l 724 664 l 504 401 z "},"":{"ha":0,"x_min":0,"x_max":0,"o":""},"":{"ha":749,"x_min":54,"x_max":694,"o":"m 374 939 q 499 914 440 939 q 601 847 557 889 q 669 747 644 804 q 694 624 694 689 q 669 501 694 558 q 601 401 644 444 q 499 334 557 358 q 374 310 440 310 q 249 334 307 310 q 148 401 192 358 q 79 501 104 444 q 54 624 54 558 q 79 747 54 689 q 148 847 104 804 q 249 914 192 889 q 374 939 307 939 m 374 350 q 483 372 432 350 q 571 430 533 393 q 631 517 608 467 q 653 624 653 567 q 631 731 653 681 q 571 817 608 781 q 483 876 533 854 q 374 897 432 897 q 266 876 317 897 q 178 817 215 854 q 118 731 140 781 q 96 624 96 681 q 118 517 96 567 q 178 430 140 467 q 266 372 215 393 q 374 350 317 350 m 518 506 q 534 488 524 494 q 560 481 544 481 l 560 453 l 461 453 q 413 481 429 453 l 375 557 q 350 578 364 575 q 322 582 336 582 l 322 515 q 337 490 325 500 q 361 481 349 481 l 361 454 l 189 454 l 189 481 q 215 491 203 481 q 228 519 228 501 l 228 729 q 215 756 228 746 q 189 767 203 767 l 189 794 l 406 794 q 454 788 431 794 q 497 769 478 782 q 526 735 515 756 q 538 688 538 715 q 516 626 538 653 q 463 589 494 600 q 477 576 469 586 q 492 554 485 567 q 506 528 499 542 q 518 506 513 515 m 419 629 q 439 688 439 651 q 416 749 439 731 q 351 768 393 768 l 324 768 l 324 608 l 351 608 q 419 629 399 608 z "},"":{"ha":408,"x_min":40,"x_max":368,"o":"m 203 1100 q 267 1087 238 1100 q 319 1051 297 1074 q 355 999 342 1029 q 368 932 368 968 q 322 811 368 858 q 203 764 275 764 q 138 776 168 764 q 86 811 108 789 q 52 865 64 833 q 40 932 40 896 q 53 999 40 968 q 87 1052 65 1029 q 138 1088 108 1075 q 203 1100 168 1100 m 203 840 q 267 865 243 840 q 292 932 292 890 q 266 997 292 971 q 203 1024 240 1024 q 140 998 164 1024 q 117 932 117 972 q 140 865 117 890 q 203 840 163 840 z "},"":{"ha":292,"x_min":39,"x_max":271,"o":"m 271 940 l 132 764 l 39 764 l 122 940 l 271 940 z "},"":{"ha":239,"x_min":43,"x_max":194,"o":"m 118 435 q 172 412 150 435 q 194 356 194 389 q 172 299 194 321 q 118 278 150 278 q 64 299 85 278 q 43 356 43 321 q 64 412 43 389 q 118 435 85 435 z "},"":{"ha":151,"x_min":-64,"x_max":208,"o":"m 101 -37 q 140 -47 121 -40 q 174 -65 158 -53 q 199 -92 189 -76 q 208 -131 208 -108 q 190 -188 208 -165 q 145 -225 172 -211 q 86 -244 118 -239 q 26 -250 54 -250 q -22 -248 0 -250 q -64 -243 -44 -246 l -57 -169 q -23 -171 -37 -171 q 3 -171 -8 -171 q 31 -170 14 -171 q 65 -165 49 -169 q 92 -150 81 -160 q 103 -124 103 -140 q 96 -104 103 -111 q 78 -92 90 -96 q 53 -85 67 -87 q 26 -83 39 -83 q 4 -82 13 -82 l 38 29 l 122 29 l 101 -37 z "},"":{"ha":768,"x_min":43,"x_max":724,"o":"m 443 401 q 440 396 443 399 l 217 139 l 43 139 l 263 400 l 43 664 l 219 664 l 440 406 l 443 403 q 443 401 443 401 m 721 406 l 724 403 q 724 401 724 401 q 721 396 724 401 l 497 139 l 324 139 l 543 400 l 324 664 l 499 664 l 721 406 z "},"":{"ha":665,"x_min":42,"x_max":626,"o":"m 386 642 q 331 665 354 642 q 308 719 308 688 q 331 774 308 751 q 386 796 354 796 q 440 774 418 796 q 463 719 463 751 q 440 665 463 688 q 386 642 418 642 m 547 181 q 605 160 588 181 q 624 110 622 140 q 617 48 626 81 q 590 -10 607 15 q 561 -49 579 -26 q 513 -92 543 -72 q 440 -125 483 -111 q 333 -139 396 -139 q 242 -129 293 -139 q 147 -94 192 -119 q 72 -26 103 -69 q 42 88 42 18 q 65 181 42 142 q 125 251 89 219 q 202 310 161 283 q 279 366 243 338 q 339 428 315 394 q 363 508 363 463 l 363 574 l 403 574 l 403 508 q 402 481 403 501 q 393 431 401 460 q 365 370 385 403 q 307 308 346 338 q 266 276 289 294 q 224 231 243 257 q 191 172 204 206 q 178 93 178 138 q 185 24 178 60 q 210 -40 192 -11 q 258 -87 228 -69 q 335 -106 289 -106 q 403 -95 378 -106 q 441 -67 428 -85 q 459 -27 454 -50 q 466 21 464 -4 q 470 72 468 46 q 479 122 472 99 q 495 152 485 140 q 516 170 506 164 q 535 178 526 176 q 547 181 543 181 z "},"":{"ha":790,"x_min":1,"x_max":793,"o":"m 385 944 q 301 979 336 944 q 267 1063 267 1014 q 276 1108 267 1086 q 301 1145 285 1129 q 338 1170 317 1161 q 385 1179 360 1179 q 430 1170 408 1179 q 467 1145 451 1161 q 492 1108 483 1129 q 501 1063 501 1088 q 492 1016 501 1038 q 467 978 483 994 q 430 953 451 963 q 385 944 408 944 m 385 1125 q 340 1107 358 1125 q 322 1063 322 1089 q 340 1018 322 1036 q 385 1000 358 1000 q 429 1018 411 1000 q 447 1063 447 1036 q 429 1107 447 1089 q 385 1125 411 1125 m 793 1 l 624 1 q 578 15 599 1 q 549 50 557 28 l 440 335 l 178 335 q 175 226 172 278 q 184 132 178 174 q 199 62 190 90 q 217 22 208 33 q 219 8 221 15 q 210 0 218 0 l 17 0 q 6 4 10 0 q 3 14 1 8 q 18 81 6 42 q 47 159 31 119 q 77 233 63 199 q 100 289 92 268 q 128 360 108 307 l 128 364 l 131 364 q 158 433 142 393 q 191 517 174 472 q 228 608 208 561 q 265 700 247 656 q 353 921 307 806 l 425 921 l 793 1 m 429 364 l 296 717 q 264 640 279 676 q 237 575 250 608 q 217 519 224 542 q 193 442 201 481 q 181 364 185 403 l 429 364 z "},"":{"ha":1171,"x_min":1,"x_max":1133,"o":"m 1133 233 l 1133 1 l 667 1 l 667 0 l 474 0 l 474 335 l 178 335 q 175 226 172 278 q 184 132 178 174 q 199 62 190 90 q 217 22 208 33 q 219 8 221 15 q 210 0 218 0 l 17 0 q 6 4 10 0 q 3 14 1 8 q 18 81 6 42 q 47 159 31 119 q 77 233 63 199 q 100 289 92 268 q 128 360 108 307 l 128 364 l 131 364 q 158 433 142 393 q 191 517 174 472 q 228 608 208 561 q 265 700 247 656 q 353 921 307 806 l 1117 921 l 1117 689 l 1089 689 q 1079 740 1089 706 q 1045 810 1069 775 q 978 870 1021 844 q 871 896 936 896 l 667 896 l 667 486 l 797 486 q 888 499 854 486 q 938 531 921 513 q 958 572 954 550 q 963 611 963 594 l 990 611 l 990 335 l 963 335 q 958 374 963 351 q 938 415 954 396 q 888 447 921 433 q 797 460 854 460 l 667 460 l 667 26 l 888 26 q 997 52 954 26 q 1063 113 1039 78 q 1097 181 1088 147 q 1107 233 1107 215 l 1133 233 m 474 364 l 474 894 l 378 894 q 304 729 338 806 q 276 665 290 697 q 250 603 263 632 q 229 553 238 575 q 217 519 221 531 q 193 442 201 481 q 181 364 185 403 l 474 364 z "},"":{"ha":653,"x_min":47,"x_max":606,"o":"m 392 399 l 586 204 l 546 164 l 351 358 l 132 139 l 47 224 l 267 443 l 72 636 l 113 678 l 307 483 l 521 697 l 606 613 l 392 399 z "},"":{"ha":1018,"x_min":29,"x_max":989,"o":"m 826 808 q 940 655 897 743 q 985 465 982 567 q 956 283 989 369 q 857 128 924 196 q 707 25 792 61 q 526 -11 622 -11 q 372 15 444 -11 q 236 86 299 40 l 154 -14 l 110 22 l 192 122 q 78 276 121 188 q 32 465 36 364 q 62 648 29 561 q 160 803 94 735 q 311 906 226 871 q 492 942 396 942 q 647 916 574 942 q 782 844 719 890 l 863 944 l 907 908 l 826 808 m 275 365 q 296 320 285 342 q 319 278 307 299 l 668 706 q 534 842 606 793 q 394 892 463 892 q 335 881 361 892 q 257 809 286 860 q 219 688 228 758 q 225 535 211 618 q 275 365 239 451 m 686 50 q 764 122 735 71 q 801 242 793 172 q 796 396 810 313 q 746 565 782 479 q 700 656 724 615 l 351 228 q 485 89 413 140 q 626 38 558 38 q 686 50 657 38 z "},"":{"ha":858,"x_min":63,"x_max":829,"o":"m 640 529 q 731 472 688 511 q 801 378 775 433 q 828 254 828 322 q 790 110 829 186 q 713 26 761 51 q 608 0 664 0 q 470 36 538 0 q 360 135 403 72 l 500 258 q 544 201 519 229 q 594 149 568 172 q 648 110 621 125 q 697 96 675 96 q 749 129 731 96 q 751 228 776 178 q 669 320 726 279 q 532 387 613 361 q 367 413 451 413 l 367 440 q 428 529 399 483 q 474 617 451 569 q 504 710 496 665 q 513 776 511 744 q 507 833 515 808 q 478 872 499 857 q 417 886 457 886 q 351 860 375 886 q 315 794 326 833 q 300 708 303 754 q 297 621 297 661 q 297 538 297 583 q 297 442 297 492 q 298 340 297 392 q 299 239 299 288 q 299 6 299 125 l 64 6 q 63 296 63 151 q 63 586 63 440 q 97 764 63 696 q 181 870 131 832 q 290 922 232 908 q 397 935 349 935 q 466 928 428 935 q 542 906 504 922 q 613 860 581 889 q 663 786 646 831 q 677 678 681 742 q 640 529 674 615 z "},"":{"ha":704,"x_min":35,"x_max":679,"o":"m 357 703 q 310 712 332 703 q 273 737 289 721 q 248 774 257 753 q 239 819 239 796 q 274 903 239 868 q 357 938 308 938 q 402 928 381 938 q 440 903 424 919 q 465 866 456 888 q 474 819 474 844 q 440 737 474 771 q 357 703 406 703 m 357 883 q 312 865 331 883 q 293 819 293 846 q 312 775 293 793 q 357 757 331 757 q 401 775 383 757 q 419 819 419 793 q 401 865 419 846 q 357 883 383 883 m 668 35 q 678 26 676 35 q 671 14 679 18 q 638 6 667 11 q 569 0 610 0 q 508 10 532 0 q 469 32 483 21 q 443 64 451 46 q 394 25 424 42 q 334 -2 371 10 q 246 -14 297 -14 q 166 1 204 -14 q 99 42 128 15 q 52 103 69 68 q 35 182 35 139 q 48 261 35 228 q 82 319 61 294 q 131 360 103 343 q 188 389 158 376 q 221 400 201 394 q 261 414 240 406 q 302 434 282 422 q 338 463 322 446 q 368 517 361 488 q 369 574 375 547 q 344 620 363 601 q 296 643 325 639 q 237 633 261 647 q 197 592 213 618 q 174 531 182 565 q 167 463 167 497 l 65 479 q 167 636 96 589 q 357 683 239 683 q 451 674 404 683 q 537 637 499 664 q 599 562 575 610 q 624 439 624 514 l 624 125 q 624 98 624 114 q 628 68 624 82 q 641 44 632 54 q 668 35 650 35 m 344 40 q 384 47 368 40 q 411 61 400 54 q 433 82 424 71 q 431 97 432 89 q 426 132 426 110 l 426 429 q 423 478 426 457 q 417 514 419 499 q 406 543 411 531 q 383 471 403 504 q 336 421 363 438 q 286 385 310 403 q 245 345 263 368 q 217 290 228 322 q 207 207 207 257 q 248 81 207 121 q 344 40 289 40 z "},"":{"ha":1099,"x_min":35,"x_max":1067,"o":"m 1044 131 q 1058 132 1050 138 q 1063 117 1067 126 q 1023 69 1049 92 q 960 28 997 46 q 877 -1 924 10 q 776 -12 831 -12 q 713 -7 743 -12 q 656 8 683 -1 q 619 3 642 6 q 569 0 597 0 q 508 10 532 0 q 469 32 483 21 q 443 64 451 46 q 394 25 424 42 q 334 -2 371 10 q 246 -14 297 -14 q 166 1 204 -14 q 99 42 128 15 q 52 103 69 68 q 35 182 35 139 q 48 261 35 228 q 82 319 61 294 q 131 360 103 343 q 188 389 158 376 q 221 400 201 394 q 261 414 240 406 q 302 434 282 422 q 338 463 322 446 q 368 517 361 488 q 369 574 375 547 q 344 620 363 601 q 296 643 325 639 q 237 633 261 647 q 197 592 213 618 q 174 531 182 565 q 167 463 167 497 l 65 479 q 167 636 96 589 q 357 683 239 683 q 472 668 415 683 q 569 608 529 653 q 779 681 654 681 q 897 660 846 681 q 982 609 947 640 q 1036 541 1017 578 q 1057 471 1056 504 q 1052 406 1060 436 q 1026 354 1044 376 q 978 319 1008 332 q 904 307 949 307 q 871 309 889 307 q 833 314 853 311 q 782 315 806 319 q 742 300 758 311 q 717 271 725 289 q 711 231 708 253 q 735 174 714 203 q 787 121 756 144 q 856 83 818 97 q 931 71 893 68 q 1003 92 975 74 q 1044 131 1031 111 m 678 271 q 699 310 683 292 q 736 340 713 325 q 799 360 760 354 q 856 389 836 365 q 881 444 876 413 q 876 512 885 476 q 850 578 868 547 q 805 628 832 608 q 746 647 778 647 q 676 623 701 647 q 639 562 650 599 q 628 480 628 525 q 635 393 628 435 q 655 318 643 351 q 678 271 667 285 m 344 40 q 384 47 368 40 q 411 61 400 54 q 433 82 424 71 q 431 97 432 89 q 426 132 426 110 l 426 429 q 423 478 426 457 q 417 514 419 499 q 406 543 411 531 q 383 471 403 504 q 336 421 363 438 q 286 385 310 403 q 245 345 263 368 q 217 290 228 322 q 207 207 207 257 q 248 81 207 121 q 344 40 289 40 z "},"":{"ha":742,"x_min":36,"x_max":704,"o":"m 668 469 q 701 333 699 403 q 684 202 704 264 q 621 91 664 140 q 517 14 578 42 q 389 -14 457 -14 q 272 8 329 -14 q 168 71 215 31 l 104 0 l 61 38 l 128 111 q 98 153 113 131 q 72 200 83 175 q 39 336 42 267 q 57 467 36 406 q 120 578 78 529 q 225 656 163 628 q 288 677 256 671 q 351 683 319 683 q 469 661 413 683 q 572 599 525 639 l 638 669 l 679 632 l 613 558 q 643 517 629 539 q 668 469 657 494 m 263 286 q 271 268 265 279 l 442 456 q 344 590 394 539 q 253 640 293 640 q 233 636 242 640 q 202 594 211 626 q 197 514 193 561 q 217 408 201 467 q 263 286 233 349 m 507 33 q 538 77 529 44 q 544 157 547 110 q 524 263 540 204 q 479 383 507 321 q 471 401 476 390 l 299 214 q 397 80 346 131 q 488 29 449 29 q 507 33 499 29 z "},"":{"ha":318,"x_min":63,"x_max":256,"o":"m 208 665 q 242 651 228 665 q 256 618 256 638 l 256 0 l 63 0 l 63 665 l 208 665 z "},"":{"ha":1497,"x_min":26,"x_max":1461,"o":"m 1461 235 l 1461 3 l 993 3 l 993 1 l 800 1 l 800 78 q 524 -14 679 -14 q 337 24 425 -14 q 181 126 249 61 q 74 277 114 190 q 29 463 33 364 q 59 645 26 558 q 157 800 92 732 q 308 903 224 867 q 489 939 393 939 q 656 909 576 939 q 800 826 736 879 l 800 922 l 1443 922 l 1443 690 l 1415 690 q 1406 742 1415 707 q 1373 811 1397 776 q 1306 872 1349 846 q 1197 897 1264 897 l 993 897 l 993 488 l 1124 488 q 1215 501 1182 488 q 1265 533 1249 514 q 1286 574 1282 551 q 1290 613 1290 596 l 1318 613 l 1318 336 l 1290 336 q 1286 375 1290 353 q 1265 416 1282 397 q 1215 448 1249 435 q 1124 461 1182 461 l 993 461 l 993 28 l 1215 28 q 1323 53 1281 28 q 1390 114 1365 79 q 1424 183 1414 149 q 1433 235 1433 217 l 1461 235 m 800 329 q 783 442 797 383 q 743 563 769 501 q 671 697 713 636 q 583 799 629 757 q 487 865 536 842 q 392 889 438 889 q 332 878 358 889 q 254 806 283 857 q 217 685 225 756 q 222 532 208 615 q 272 363 236 449 q 345 228 304 289 q 433 126 386 168 q 529 60 481 83 q 624 36 578 36 q 701 57 669 36 q 754 110 733 78 q 786 183 775 143 q 800 263 797 224 l 800 329 z "},"":{"ha":1168,"x_min":31,"x_max":1136,"o":"m 1113 133 q 1127 135 1118 140 q 1131 119 1136 129 q 1092 72 1118 94 q 1029 31 1065 49 q 946 1 993 13 q 844 -10 899 -10 q 712 15 771 -10 q 610 86 653 40 q 508 12 565 38 q 383 -14 450 -14 q 288 1 335 -14 q 200 43 242 15 q 124 110 158 71 q 67 200 90 150 q 33 336 36 267 q 51 467 31 406 q 115 579 72 529 q 219 657 157 629 q 346 685 282 685 q 481 655 415 685 q 596 571 546 625 l 604 579 q 849 683 696 683 q 965 663 914 683 q 1051 612 1015 643 q 1105 544 1086 581 q 1125 474 1124 507 q 1121 409 1128 439 q 1096 357 1114 379 q 1047 322 1078 335 q 972 310 1017 310 q 939 312 957 310 q 901 317 921 314 q 850 318 874 322 q 810 303 826 314 q 785 274 793 292 q 779 233 776 256 q 803 176 782 206 q 855 124 824 147 q 924 85 886 100 q 1000 74 963 71 q 1072 95 1044 76 q 1113 133 1100 114 m 747 274 q 768 313 753 294 q 804 342 781 328 q 868 363 828 357 q 926 392 906 368 q 950 447 946 415 q 946 515 954 479 q 919 581 938 550 q 873 631 900 611 q 814 650 846 650 q 744 626 769 650 q 707 565 718 601 q 697 483 696 528 q 705 396 697 438 q 724 321 713 354 q 747 274 736 288 m 501 33 q 533 77 524 44 q 538 157 542 110 q 518 263 535 204 q 474 385 501 322 q 419 488 449 442 q 359 569 389 535 q 300 622 329 603 q 247 640 271 640 q 228 636 236 640 q 197 594 206 626 q 192 514 188 561 q 212 408 196 467 q 257 286 228 349 q 318 173 285 224 q 385 88 351 122 q 449 38 418 53 q 501 33 479 24 z "},"":{"ha":471,"x_min":36,"x_max":435,"o":"m 435 764 l 306 764 l 236 871 l 165 764 l 36 764 l 172 940 l 293 940 l 435 764 z "},"":{"ha":438,"x_min":19,"x_max":418,"o":"m 418 940 l 276 764 l 156 764 l 19 940 l 149 940 l 219 833 l 289 940 l 418 940 z "},"":{"ha":503,"x_min":42,"x_max":463,"o":"m 463 910 q 426 801 461 840 q 339 767 392 767 q 235 801 299 767 q 174 824 194 824 q 135 806 146 824 q 125 764 125 788 l 42 764 q 78 868 42 832 q 169 908 114 908 q 275 874 206 908 q 335 856 311 856 q 365 865 356 856 q 381 910 376 879 l 463 910 z "},"":{"ha":626,"x_min":38,"x_max":589,"o":"m 38 347 l 38 426 l 589 426 l 589 347 l 38 347 z "},"":{"ha":790,"x_min":38,"x_max":753,"o":"m 38 347 l 38 426 l 753 426 l 753 347 l 38 347 z "},"":{"ha":228,"x_min":43,"x_max":185,"o":"m 169 846 q 179 837 174 844 q 185 815 185 829 q 171 780 185 796 q 129 764 157 764 q 100 770 115 764 q 72 790 85 776 q 51 823 60 803 q 43 871 43 843 q 55 924 43 900 q 85 967 67 949 q 127 997 104 985 q 172 1017 150 1010 l 185 986 q 128 950 151 971 q 104 900 104 929 q 123 863 104 874 q 169 846 142 853 z "},"":{"ha":222,"x_min":38,"x_max":179,"o":"m 94 1017 q 123 1010 108 1017 q 150 990 138 1003 q 171 958 163 978 q 179 910 179 938 q 167 856 179 879 q 137 814 156 832 q 95 783 118 796 q 50 764 72 771 l 38 793 q 95 831 72 810 q 118 881 118 851 q 99 917 118 907 q 54 935 81 928 q 43 943 49 935 q 38 965 38 951 q 52 1001 38 985 q 94 1017 67 1017 z "},"":{"ha":221,"x_min":39,"x_max":181,"o":"m 96 113 q 124 106 110 113 q 151 87 139 100 q 172 53 164 74 q 181 6 181 33 q 169 -48 181 -24 q 138 -90 157 -72 q 97 -121 119 -108 q 51 -139 74 -133 l 39 -110 q 97 -74 74 -94 q 119 -24 119 -53 q 101 14 119 4 q 56 31 82 24 q 44 40 50 32 q 39 63 39 49 q 53 97 39 82 q 96 113 68 113 z "},"":{"ha":386,"x_min":43,"x_max":344,"o":"m 185 986 q 128 950 151 971 q 104 900 104 929 q 123 863 104 874 q 169 846 142 853 q 179 837 174 844 q 185 815 185 829 q 171 780 185 796 q 129 764 157 764 q 100 770 115 764 q 72 790 85 776 q 51 823 60 803 q 43 871 43 843 q 55 924 43 900 q 85 967 67 949 q 127 997 104 985 q 172 1017 150 1010 l 185 986 m 328 846 q 338 837 332 844 q 344 815 344 829 q 330 780 344 796 q 288 764 315 764 q 258 770 274 764 q 231 790 243 776 q 210 823 218 803 q 201 871 201 843 q 213 924 201 900 q 244 967 225 949 q 285 997 263 985 q 331 1017 308 1010 l 344 986 q 287 950 310 971 q 264 900 264 929 q 283 863 264 874 q 328 846 301 853 z "},"":{"ha":381,"x_min":38,"x_max":339,"o":"m 253 1017 q 282 1010 267 1017 q 310 991 297 1004 q 331 958 322 978 q 339 910 339 938 q 327 856 339 879 q 297 814 315 832 q 255 783 278 796 q 210 764 232 771 l 196 793 q 253 831 231 810 q 276 881 276 851 q 258 917 276 907 q 213 935 239 928 q 202 943 208 935 q 196 965 196 951 q 210 1001 196 985 q 253 1017 225 1017 m 94 1017 q 123 1010 108 1017 q 150 991 138 1004 q 171 958 163 978 q 179 910 179 938 q 167 856 179 879 q 137 814 156 832 q 95 783 118 796 q 50 764 72 771 l 38 793 q 95 831 72 810 q 118 881 118 851 q 99 917 118 907 q 54 935 81 928 q 43 943 49 935 q 38 965 38 951 q 52 1001 38 985 q 94 1017 67 1017 z "},"":{"ha":379,"x_min":39,"x_max":340,"o":"m 254 113 q 283 106 268 113 q 311 87 299 100 q 332 53 324 74 q 340 6 340 33 q 328 -48 340 -24 q 298 -90 317 -72 q 256 -121 279 -108 q 211 -139 233 -133 l 197 -110 q 255 -74 232 -94 q 278 -24 278 -53 q 259 13 278 3 q 214 31 240 24 q 203 40 210 32 q 197 63 197 49 q 212 97 197 82 q 254 113 226 113 m 96 113 q 124 106 110 113 q 151 87 139 100 q 172 53 164 74 q 181 6 181 33 q 169 -48 181 -24 q 138 -90 157 -72 q 97 -121 119 -108 q 51 -139 74 -133 l 39 -110 q 97 -74 74 -94 q 119 -24 119 -53 q 101 13 119 3 q 56 31 82 24 q 44 40 50 32 q 39 63 39 49 q 53 97 39 82 q 96 113 68 113 z "},"":{"ha":817,"x_min":40,"x_max":776,"o":"m 776 572 l 485 572 l 485 -153 l 331 -153 l 331 572 l 40 572 l 40 726 l 331 726 l 331 979 l 485 979 l 485 726 l 776 726 l 776 572 z "},"":{"ha":335,"x_min":47,"x_max":288,"o":"m 165 525 q 253 490 218 525 q 288 401 288 454 q 253 312 288 346 q 165 278 218 278 q 80 312 113 278 q 47 401 47 346 q 80 490 47 454 q 165 525 113 525 z "},"":{"ha":488,"x_min":43,"x_max":443,"o":"m 224 401 l 443 139 l 268 139 l 46 397 q 45 399 46 399 q 44 400 44 399 l 43 401 q 46 407 43 401 l 271 664 l 443 664 l 224 401 z "},"":{"ha":488,"x_min":43,"x_max":443,"o":"m 440 406 l 443 403 q 443 401 443 401 q 440 396 443 399 l 217 139 l 43 139 l 263 400 l 43 664 l 219 664 l 440 406 z "},"":{"ha":900,"x_min":46,"x_max":850,"o":"m 665 132 q 736 136 703 128 q 799 161 769 144 l 850 110 q 748 30 808 63 q 603 -3 688 -3 q 444 25 519 -3 q 308 102 368 53 q 206 221 247 151 q 150 374 165 290 l 46 374 l 46 438 l 142 438 l 142 478 q 142 496 142 486 q 143 515 142 506 l 46 515 l 46 579 l 153 579 q 199 710 167 643 q 285 833 231 778 q 417 923 339 888 q 603 958 496 958 q 748 926 688 958 q 850 846 808 893 l 799 793 q 689 817 740 817 q 524 751 593 817 q 426 579 454 686 l 736 579 l 736 515 l 415 515 q 412 476 413 496 q 411 438 411 457 l 736 438 l 736 374 l 419 374 q 451 286 431 328 q 503 212 472 244 q 576 158 535 179 q 665 132 617 138 z "},"":{"ha":790,"x_min":1,"x_max":793,"o":"m 514 1010 l 424 1010 l 278 1186 l 429 1186 l 514 1010 m 793 0 l 624 0 q 578 14 599 0 q 549 50 557 28 l 440 335 l 178 335 q 175 226 172 278 q 184 132 178 174 q 199 61 190 90 q 217 21 208 32 q 219 8 221 15 q 210 0 218 0 l 17 0 q 6 4 10 0 q 3 14 1 8 q 18 81 6 42 q 47 159 31 119 q 77 233 63 199 q 100 288 92 268 q 111 317 104 299 q 128 360 118 335 l 128 364 l 131 364 q 158 433 142 393 q 191 517 174 472 q 228 608 208 561 q 265 700 247 656 q 353 921 307 806 l 425 921 l 793 0 m 429 364 l 296 717 q 264 640 279 676 q 237 575 250 608 q 217 519 224 542 q 193 442 201 481 q 181 364 185 403 l 429 364 z "},"":{"ha":790,"x_min":1,"x_max":793,"o":"m 511 1186 l 372 1010 l 279 1010 l 363 1186 l 511 1186 m 793 0 l 624 0 q 578 14 599 0 q 549 50 557 28 l 440 335 l 178 335 q 175 226 172 278 q 184 132 178 174 q 199 61 190 90 q 217 21 208 32 q 219 8 221 15 q 210 0 218 0 l 17 0 q 6 4 10 0 q 3 14 1 8 q 18 81 6 42 q 47 159 31 119 q 77 233 63 199 q 100 288 92 268 q 111 317 104 299 q 128 360 118 335 l 128 364 l 131 364 q 158 433 142 393 q 191 517 174 472 q 228 608 208 561 q 265 700 247 656 q 353 921 307 806 l 425 921 l 793 0 m 429 364 l 296 717 q 264 640 279 676 q 237 575 250 608 q 217 519 224 542 q 193 442 201 481 q 181 364 185 403 l 429 364 z "},"":{"ha":790,"x_min":1,"x_max":793,"o":"m 594 1010 l 465 1010 l 396 1117 l 325 1010 l 196 1010 l 332 1186 l 453 1186 l 594 1010 m 793 0 l 624 0 q 578 14 599 0 q 549 50 557 28 l 440 335 l 178 335 q 175 226 172 278 q 184 132 178 174 q 199 61 190 90 q 217 21 208 32 q 219 8 221 15 q 210 0 218 0 l 17 0 q 6 4 10 0 q 3 14 1 8 q 18 81 6 42 q 47 159 31 119 q 77 233 63 199 q 100 288 92 268 q 111 317 104 299 q 128 360 118 335 l 128 364 l 131 364 q 158 433 142 393 q 191 517 174 472 q 228 608 208 561 q 265 700 247 656 q 353 921 307 806 l 425 921 l 793 0 m 429 364 l 296 717 q 264 640 279 676 q 237 575 250 608 q 217 519 224 542 q 193 442 201 481 q 181 364 185 403 l 429 364 z "},"":{"ha":790,"x_min":1,"x_max":793,"o":"m 606 1156 q 569 1047 604 1086 q 482 1013 535 1013 q 378 1047 442 1013 q 317 1069 338 1069 q 278 1051 289 1069 q 268 1010 268 1033 l 185 1010 q 221 1114 185 1078 q 313 1154 257 1154 q 418 1119 349 1154 q 478 1101 454 1101 q 508 1111 499 1101 q 524 1156 519 1125 l 606 1156 m 793 0 l 624 0 q 578 14 599 0 q 549 50 557 28 l 440 335 l 178 335 q 175 226 172 278 q 184 132 178 174 q 199 61 190 90 q 217 21 208 32 q 219 8 221 15 q 210 0 218 0 l 17 0 q 6 4 10 0 q 3 14 1 8 q 18 81 6 42 q 47 159 31 119 q 77 233 63 199 q 100 288 92 268 q 111 317 104 299 q 128 360 118 335 l 128 364 l 131 364 q 158 433 142 393 q 191 517 174 472 q 228 608 208 561 q 265 700 247 656 q 353 921 307 806 l 425 921 l 793 0 m 429 364 l 296 717 q 264 640 279 676 q 237 575 250 608 q 217 519 224 542 q 193 442 201 481 q 181 364 185 403 l 429 364 z "},"":{"ha":790,"x_min":1,"x_max":793,"o":"m 219 1010 l 219 1139 l 338 1139 l 338 1010 l 219 1010 m 454 1010 l 454 1139 l 572 1139 l 572 1010 l 454 1010 m 793 0 l 624 0 q 578 14 599 0 q 549 50 557 28 l 440 335 l 178 335 q 175 226 172 278 q 184 132 178 174 q 199 61 190 90 q 217 21 208 32 q 219 8 221 15 q 210 0 218 0 l 17 0 q 6 4 10 0 q 3 14 1 8 q 18 81 6 42 q 47 159 31 119 q 77 233 63 199 q 100 288 92 268 q 111 317 104 299 q 128 360 118 335 l 128 364 l 131 364 q 158 433 142 393 q 191 517 174 472 q 228 608 208 561 q 265 700 247 656 q 353 921 307 806 l 425 921 l 793 0 m 429 364 l 296 717 q 264 640 279 676 q 237 575 250 608 q 217 519 224 542 q 193 442 201 481 q 181 364 185 403 l 429 364 z "},"":{"ha":886,"x_min":32,"x_max":874,"o":"m 874 275 q 783 132 839 196 q 729 79 760 106 q 660 32 699 53 q 577 -1 622 11 q 479 -15 532 -14 l 472 -37 q 510 -47 492 -40 q 544 -65 529 -53 q 569 -92 560 -76 q 579 -131 579 -108 q 561 -188 579 -165 q 516 -225 543 -211 q 457 -244 489 -239 q 397 -250 425 -250 q 349 -248 371 -250 q 307 -243 326 -246 l 314 -169 q 348 -171 333 -171 q 374 -171 363 -171 q 402 -170 385 -171 q 435 -165 419 -169 q 463 -150 451 -160 q 474 -124 474 -140 q 467 -104 474 -111 q 449 -92 461 -96 q 424 -85 438 -87 q 397 -83 410 -83 q 375 -82 383 -82 l 397 -8 q 217 64 288 8 q 105 189 146 119 q 48 331 64 258 q 32 453 32 403 q 60 640 32 553 q 144 792 89 728 q 281 894 200 857 q 468 932 363 932 q 568 922 518 932 q 665 888 618 913 q 754 820 713 863 q 828 713 796 778 l 656 661 q 575 838 633 769 q 433 906 517 906 q 393 901 414 906 q 308 851 344 892 q 247 751 271 811 q 214 619 224 692 q 210 472 204 546 q 238 326 215 397 q 301 201 260 256 q 401 114 342 147 q 542 81 461 81 q 678 113 624 81 q 765 182 732 144 q 828 283 804 226 l 874 275 z "},"":{"ha":767,"x_min":69,"x_max":731,"o":"m 501 1010 l 411 1010 l 265 1186 l 417 1186 l 501 1010 m 731 1 l 263 1 l 263 0 l 69 0 l 69 921 l 713 921 l 713 689 l 685 689 q 675 740 685 706 q 641 810 665 775 q 574 870 617 844 q 467 896 532 896 l 263 896 l 263 486 l 393 486 q 485 499 451 486 q 535 531 518 513 q 556 572 551 550 q 560 611 560 594 l 586 611 l 586 335 l 560 335 q 556 374 560 351 q 535 415 551 396 q 485 447 518 433 q 393 460 451 460 l 263 460 l 263 26 l 485 26 q 592 52 550 26 q 659 113 635 78 q 693 181 683 147 q 703 233 703 215 l 731 233 l 731 1 z "},"":{"ha":767,"x_min":69,"x_max":731,"o":"m 500 1186 l 361 1010 l 268 1010 l 351 1186 l 500 1186 m 731 1 l 263 1 l 263 0 l 69 0 l 69 921 l 713 921 l 713 689 l 685 689 q 675 740 685 706 q 641 810 665 775 q 574 870 617 844 q 467 896 532 896 l 263 896 l 263 486 l 393 486 q 485 499 451 486 q 535 531 518 513 q 556 572 551 550 q 560 611 560 594 l 586 611 l 586 335 l 560 335 q 556 374 560 351 q 535 415 551 396 q 485 447 518 433 q 393 460 451 460 l 263 460 l 263 26 l 485 26 q 592 52 550 26 q 659 113 635 78 q 693 181 683 147 q 703 233 703 215 l 731 233 l 731 1 z "},"":{"ha":767,"x_min":69,"x_max":731,"o":"m 583 1010 l 454 1010 l 385 1117 l 314 1010 l 185 1010 l 321 1186 l 442 1186 l 583 1010 m 731 1 l 263 1 l 263 0 l 69 0 l 69 921 l 713 921 l 713 689 l 685 689 q 675 740 685 706 q 641 810 665 775 q 574 870 617 844 q 467 896 532 896 l 263 896 l 263 486 l 393 486 q 485 499 451 486 q 535 531 518 513 q 556 572 551 550 q 560 611 560 594 l 586 611 l 586 335 l 560 335 q 556 374 560 351 q 535 415 551 396 q 485 447 518 433 q 393 460 451 460 l 263 460 l 263 26 l 485 26 q 592 52 550 26 q 659 113 635 78 q 693 181 683 147 q 703 233 703 215 l 731 233 l 731 1 z "},"":{"ha":767,"x_min":69,"x_max":731,"o":"m 207 1010 l 207 1139 l 325 1139 l 325 1010 l 207 1010 m 442 1010 l 442 1139 l 560 1139 l 560 1010 l 442 1010 m 731 1 l 263 1 l 263 0 l 69 0 l 69 921 l 713 921 l 713 689 l 685 689 q 675 740 685 706 q 641 810 665 775 q 574 870 617 844 q 467 896 532 896 l 263 896 l 263 486 l 393 486 q 485 499 451 486 q 535 531 518 513 q 556 572 551 550 q 560 611 560 594 l 586 611 l 586 335 l 560 335 q 556 374 560 351 q 535 415 551 396 q 485 447 518 433 q 393 460 451 460 l 263 460 l 263 26 l 485 26 q 592 52 550 26 q 659 113 635 78 q 693 181 683 147 q 703 233 703 215 l 731 233 l 731 1 z "},"":{"ha":333,"x_min":49,"x_max":285,"o":"m 285 1010 l 194 1010 l 49 1186 l 200 1186 l 285 1010 m 69 0 l 69 919 l 263 919 l 263 0 l 69 0 z "},"":{"ha":333,"x_min":51,"x_max":283,"o":"m 283 1186 l 144 1010 l 51 1010 l 135 1186 l 283 1186 m 69 0 l 69 919 l 263 919 l 263 0 l 69 0 z "},"":{"ha":333,"x_min":-33,"x_max":365,"o":"m 365 1010 l 236 1010 l 167 1117 l 96 1010 l -33 1010 l 103 1186 l 224 1186 l 365 1010 m 69 0 l 69 919 l 263 919 l 263 0 l 69 0 z "},"":{"ha":333,"x_min":-10,"x_max":343,"o":"m -10 1010 l -10 1139 l 108 1139 l 108 1010 l -10 1010 m 225 1010 l 225 1139 l 343 1139 l 343 1010 l 225 1010 m 69 0 l 69 919 l 263 919 l 263 0 l 69 0 z "},"":{"ha":851,"x_min":68,"x_max":783,"o":"m 636 1156 q 600 1047 635 1086 q 513 1013 565 1013 q 408 1047 472 1013 q 347 1069 368 1069 q 309 1051 319 1069 q 299 1010 299 1033 l 215 1010 q 251 1114 215 1078 q 343 1154 288 1154 q 449 1119 379 1154 q 508 1101 485 1101 q 539 1111 529 1101 q 554 1156 550 1125 l 636 1156 m 782 890 q 782 451 782 646 q 782 289 782 368 q 783 147 782 210 q 783 43 783 83 q 783 0 783 3 l 750 0 l 100 811 l 100 688 q 132 431 100 550 q 203 224 164 313 q 276 81 242 135 q 314 19 310 28 q 315 6 318 13 q 303 0 311 0 l 97 0 q 77 8 86 0 q 68 29 68 17 l 68 919 l 272 919 l 744 333 q 701 553 733 453 q 633 729 668 654 q 569 849 597 804 q 536 901 540 894 q 536 914 532 908 q 547 919 540 919 l 753 919 q 774 911 765 919 q 782 890 782 903 z "},"":{"ha":1013,"x_min":26,"x_max":985,"o":"m 625 1010 l 535 1010 l 389 1186 l 540 1186 l 625 1010 m 489 938 q 676 900 588 938 q 831 798 764 863 q 938 647 897 733 q 982 461 979 560 q 953 278 985 365 q 854 124 921 192 q 704 21 789 57 q 524 -15 619 -15 q 337 22 425 -15 q 181 124 249 60 q 74 276 114 189 q 29 461 33 363 q 59 644 26 557 q 157 799 92 731 q 308 901 224 865 q 489 938 393 938 m 683 46 q 761 117 732 67 q 799 238 790 168 q 793 392 807 308 q 743 561 779 475 q 671 695 713 635 q 582 798 629 756 q 486 864 535 840 q 392 888 438 888 q 332 876 358 888 q 254 805 283 856 q 217 684 225 754 q 222 531 208 614 q 272 361 236 447 q 345 227 304 288 q 433 124 386 167 q 528 57 479 81 q 622 33 576 33 q 683 46 654 33 z "},"":{"ha":1013,"x_min":26,"x_max":985,"o":"m 622 1186 l 483 1010 l 390 1010 l 474 1186 l 622 1186 m 489 938 q 676 900 588 938 q 831 798 764 863 q 938 647 897 733 q 982 461 979 560 q 953 278 985 365 q 854 124 921 192 q 704 21 789 57 q 524 -15 619 -15 q 337 22 425 -15 q 181 124 249 60 q 74 276 114 189 q 29 461 33 363 q 59 644 26 557 q 157 799 92 731 q 308 901 224 865 q 489 938 393 938 m 683 46 q 761 117 732 67 q 799 238 790 168 q 793 392 807 308 q 743 561 779 475 q 671 695 713 635 q 582 798 629 756 q 486 864 535 840 q 392 888 438 888 q 332 876 358 888 q 254 805 283 856 q 217 684 225 754 q 222 531 208 614 q 272 361 236 447 q 345 227 304 288 q 433 124 386 167 q 528 57 479 81 q 622 33 576 33 q 683 46 654 33 z "},"":{"ha":1013,"x_min":26,"x_max":985,"o":"m 706 1010 l 576 1010 l 507 1117 l 436 1010 l 307 1010 l 443 1186 l 564 1186 l 706 1010 m 489 938 q 676 900 588 938 q 831 798 764 863 q 938 647 897 733 q 982 461 979 560 q 953 278 985 365 q 854 124 921 192 q 704 21 789 57 q 524 -15 619 -15 q 337 22 425 -15 q 181 124 249 60 q 74 276 114 189 q 29 461 33 363 q 59 644 26 557 q 157 799 92 731 q 308 901 224 865 q 489 938 393 938 m 683 46 q 761 117 732 67 q 799 238 790 168 q 793 392 807 308 q 743 561 779 475 q 671 695 713 635 q 582 798 629 756 q 486 864 535 840 q 392 888 438 888 q 332 876 358 888 q 254 805 283 856 q 217 684 225 754 q 222 531 208 614 q 272 361 236 447 q 345 227 304 288 q 433 124 386 167 q 528 57 479 81 q 622 33 576 33 q 683 46 654 33 z "},"":{"ha":1013,"x_min":26,"x_max":985,"o":"m 717 1156 q 681 1047 715 1086 q 593 1013 646 1013 q 489 1047 553 1013 q 428 1069 449 1069 q 390 1051 400 1069 q 379 1010 379 1033 l 296 1010 q 332 1114 296 1078 q 424 1154 368 1154 q 529 1119 460 1154 q 589 1101 565 1101 q 619 1111 610 1101 q 635 1156 631 1125 l 717 1156 m 489 938 q 676 900 588 938 q 831 798 764 863 q 938 647 897 733 q 982 461 979 560 q 953 278 985 365 q 854 124 921 192 q 704 21 789 57 q 524 -15 619 -15 q 337 22 425 -15 q 181 124 249 60 q 74 276 114 189 q 29 461 33 363 q 59 644 26 557 q 157 799 92 731 q 308 901 224 865 q 489 938 393 938 m 683 46 q 761 117 732 67 q 799 238 790 168 q 793 392 807 308 q 743 561 779 475 q 671 695 713 635 q 582 798 629 756 q 486 864 535 840 q 392 888 438 888 q 332 876 358 888 q 254 805 283 856 q 217 684 225 754 q 222 531 208 614 q 272 361 236 447 q 345 227 304 288 q 433 124 386 167 q 528 57 479 81 q 622 33 576 33 q 683 46 654 33 z "},"":{"ha":1013,"x_min":26,"x_max":985,"o":"m 331 1010 l 331 1139 l 449 1139 l 449 1010 l 331 1010 m 565 1010 l 565 1139 l 683 1139 l 683 1010 l 565 1010 m 489 938 q 676 900 588 938 q 831 798 764 863 q 938 647 897 733 q 982 461 979 560 q 953 278 985 365 q 854 124 921 192 q 704 21 789 57 q 524 -15 619 -15 q 337 22 425 -15 q 181 124 249 60 q 74 276 114 189 q 29 461 33 363 q 59 644 26 557 q 157 799 92 731 q 308 901 224 865 q 489 938 393 938 m 683 46 q 761 117 732 67 q 799 238 790 168 q 793 392 807 308 q 743 561 779 475 q 671 695 713 635 q 582 798 629 756 q 486 864 535 840 q 392 888 438 888 q 332 876 358 888 q 254 805 283 856 q 217 684 225 754 q 222 531 208 614 q 272 361 236 447 q 345 227 304 288 q 433 124 386 167 q 528 57 479 81 q 622 33 576 33 q 683 46 654 33 z "},"":{"ha":819,"x_min":57,"x_max":761,"o":"m 528 1010 l 438 1010 l 292 1186 l 443 1186 l 528 1010 m 761 919 l 761 381 q 733 187 761 264 q 658 65 704 110 q 553 3 611 21 q 433 -15 494 -15 q 238 25 311 -15 q 124 128 164 65 q 70 266 83 190 q 57 413 57 342 l 57 919 l 250 919 l 250 385 q 251 328 250 363 q 260 255 253 294 q 281 176 267 215 q 322 105 296 136 q 389 53 349 74 q 488 33 429 33 q 583 54 538 33 q 661 117 628 75 q 714 225 694 160 q 733 378 733 290 l 733 919 l 761 919 z "},"":{"ha":819,"x_min":57,"x_max":761,"o":"m 526 1186 l 388 1010 l 294 1010 l 378 1186 l 526 1186 m 761 919 l 761 381 q 733 187 761 264 q 658 65 704 110 q 553 3 611 21 q 433 -15 494 -15 q 238 25 311 -15 q 124 128 164 65 q 70 266 83 190 q 57 413 57 342 l 57 919 l 250 919 l 250 385 q 251 328 250 363 q 260 255 253 294 q 281 176 267 215 q 322 105 296 136 q 389 53 349 74 q 488 33 429 33 q 583 54 538 33 q 661 117 628 75 q 714 225 694 160 q 733 378 733 290 l 733 919 l 761 919 z "},"":{"ha":819,"x_min":57,"x_max":761,"o":"m 610 1010 l 481 1010 l 411 1117 l 340 1010 l 211 1010 l 347 1186 l 468 1186 l 610 1010 m 761 919 l 761 381 q 733 187 761 264 q 658 65 704 110 q 553 3 611 21 q 433 -15 494 -15 q 238 25 311 -15 q 124 128 164 65 q 70 266 83 190 q 57 413 57 342 l 57 919 l 250 919 l 250 385 q 251 328 250 363 q 260 255 253 294 q 281 176 267 215 q 322 105 296 136 q 389 53 349 74 q 488 33 429 33 q 583 54 538 33 q 661 117 628 75 q 714 225 694 160 q 733 378 733 290 l 733 919 l 761 919 z "},"":{"ha":819,"x_min":57,"x_max":761,"o":"m 233 1010 l 233 1139 l 351 1139 l 351 1010 l 233 1010 m 468 1010 l 468 1139 l 586 1139 l 586 1010 l 468 1010 m 761 919 l 761 381 q 733 187 761 264 q 658 65 704 110 q 553 3 611 21 q 433 -15 494 -15 q 238 25 311 -15 q 124 128 164 65 q 70 266 83 190 q 57 413 57 342 l 57 919 l 250 919 l 250 385 q 251 328 250 363 q 260 255 253 294 q 281 176 267 215 q 322 105 296 136 q 389 53 349 74 q 488 33 429 33 q 583 54 538 33 q 661 117 628 75 q 714 225 694 160 q 733 378 733 290 l 733 919 l 761 919 z "},"":{"ha":757,"x_min":-8,"x_max":760,"o":"m 494 1186 l 356 1010 l 263 1010 l 346 1186 l 494 1186 m 283 1 l 283 490 l -6 911 q -6 917 -8 914 q 0 921 -4 921 l 167 921 q 233 885 208 921 q 301 785 261 844 q 382 667 342 725 q 476 526 428 599 q 538 632 515 572 q 571 747 561 692 q 578 846 581 803 q 565 901 576 889 q 563 915 561 908 q 572 921 564 921 l 746 921 q 760 908 760 921 q 729 826 760 879 q 655 710 699 772 q 562 590 611 649 q 476 490 513 531 l 476 1 l 283 1 z "},"":{"ha":704,"x_min":35,"x_max":679,"o":"m 471 764 l 381 764 l 235 940 l 386 940 l 471 764 m 668 42 q 678 33 676 42 q 671 19 679 25 q 638 12 667 17 q 569 7 610 7 q 508 17 532 7 q 469 39 483 28 q 443 71 451 53 q 394 32 424 49 q 334 5 371 17 q 246 -7 297 -7 q 166 8 204 -7 q 99 49 128 22 q 52 110 69 75 q 35 189 35 146 q 48 268 35 235 q 82 326 61 301 q 131 367 103 350 q 188 394 158 383 q 221 406 201 400 q 261 421 240 413 q 302 440 282 429 q 338 468 322 451 q 368 523 361 493 q 369 580 375 553 q 344 626 363 607 q 296 650 325 646 q 237 640 261 654 q 197 599 213 625 q 174 538 182 572 q 167 469 167 504 l 65 486 q 167 643 96 596 q 357 690 239 690 q 451 681 404 690 q 537 644 499 671 q 599 569 575 617 q 624 446 624 521 l 624 132 q 624 105 624 121 q 628 75 624 89 q 641 51 632 61 q 668 42 650 42 m 344 46 q 384 53 368 46 q 411 68 400 60 q 433 89 424 76 q 431 103 432 96 q 426 139 426 118 l 426 435 q 423 483 426 463 q 417 519 419 504 q 406 549 411 536 q 383 478 403 511 q 336 426 363 444 q 286 392 310 408 q 245 351 263 375 q 217 295 228 328 q 207 214 207 263 q 248 87 207 128 q 344 46 289 46 z "},"":{"ha":704,"x_min":35,"x_max":679,"o":"m 468 940 l 329 764 l 236 764 l 319 940 l 468 940 m 668 42 q 678 33 676 42 q 671 19 679 25 q 638 12 667 17 q 569 7 610 7 q 508 17 532 7 q 469 39 483 28 q 443 71 451 53 q 394 32 424 49 q 334 5 371 17 q 246 -7 297 -7 q 166 8 204 -7 q 99 49 128 22 q 52 110 69 75 q 35 189 35 146 q 48 268 35 235 q 82 326 61 301 q 131 367 103 350 q 188 394 158 383 q 221 406 201 400 q 261 421 240 413 q 302 440 282 429 q 338 468 322 451 q 368 523 361 493 q 369 580 375 553 q 344 626 363 607 q 296 650 325 646 q 237 640 261 654 q 197 599 213 625 q 174 538 182 572 q 167 469 167 504 l 65 486 q 167 643 96 596 q 357 690 239 690 q 451 681 404 690 q 537 644 499 671 q 599 569 575 617 q 624 446 624 521 l 624 132 q 624 105 624 121 q 628 75 624 89 q 641 51 632 61 q 668 42 650 42 m 344 46 q 384 53 368 46 q 411 68 400 60 q 433 89 424 76 q 431 103 432 96 q 426 139 426 118 l 426 435 q 423 483 426 463 q 417 519 419 504 q 406 549 411 536 q 383 478 403 511 q 336 426 363 444 q 286 392 310 408 q 245 351 263 375 q 217 295 228 328 q 207 214 207 263 q 248 87 207 128 q 344 46 289 46 z "},"":{"ha":704,"x_min":35,"x_max":679,"o":"m 551 764 l 422 764 l 353 871 l 282 764 l 153 764 l 289 940 l 410 940 l 551 764 m 668 42 q 678 33 676 42 q 671 19 679 25 q 638 12 667 17 q 569 7 610 7 q 508 17 532 7 q 469 39 483 28 q 443 71 451 53 q 394 32 424 49 q 334 5 371 17 q 246 -7 297 -7 q 166 8 204 -7 q 99 49 128 22 q 52 110 69 75 q 35 189 35 146 q 48 268 35 235 q 82 326 61 301 q 131 367 103 350 q 188 394 158 383 q 221 406 201 400 q 261 421 240 413 q 302 440 282 429 q 338 468 322 451 q 368 523 361 493 q 369 580 375 553 q 344 626 363 607 q 296 650 325 646 q 237 640 261 654 q 197 599 213 625 q 174 538 182 572 q 167 469 167 504 l 65 486 q 167 643 96 596 q 357 690 239 690 q 451 681 404 690 q 537 644 499 671 q 599 569 575 617 q 624 446 624 521 l 624 132 q 624 105 624 121 q 628 75 624 89 q 641 51 632 61 q 668 42 650 42 m 344 46 q 384 53 368 46 q 411 68 400 60 q 433 89 424 76 q 431 103 432 96 q 426 139 426 118 l 426 435 q 423 483 426 463 q 417 519 419 504 q 406 549 411 536 q 383 478 403 511 q 336 426 363 444 q 286 392 310 408 q 245 351 263 375 q 217 295 228 328 q 207 214 207 263 q 248 87 207 128 q 344 46 289 46 z "},"":{"ha":704,"x_min":35,"x_max":679,"o":"m 563 910 q 526 801 561 840 q 439 767 492 767 q 335 801 399 767 q 274 824 294 824 q 235 806 246 824 q 225 764 225 788 l 142 764 q 178 868 142 832 q 269 908 214 908 q 375 874 306 908 q 435 856 411 856 q 465 865 456 856 q 481 910 476 879 l 563 910 m 668 42 q 678 33 676 42 q 671 19 679 25 q 638 12 667 17 q 569 7 610 7 q 508 17 532 7 q 469 39 483 28 q 443 71 451 53 q 394 32 424 49 q 334 5 371 17 q 246 -7 297 -7 q 166 8 204 -7 q 99 49 128 22 q 52 110 69 75 q 35 189 35 146 q 48 268 35 235 q 82 326 61 301 q 131 367 103 350 q 188 394 158 383 q 221 406 201 400 q 261 421 240 413 q 302 440 282 429 q 338 468 322 451 q 368 523 361 493 q 369 580 375 553 q 344 626 363 607 q 296 650 325 646 q 237 640 261 654 q 197 599 213 625 q 174 538 182 572 q 167 469 167 504 l 65 486 q 167 643 96 596 q 357 690 239 690 q 451 681 404 690 q 537 644 499 671 q 599 569 575 617 q 624 446 624 521 l 624 132 q 624 105 624 121 q 628 75 624 89 q 641 51 632 61 q 668 42 650 42 m 344 46 q 384 53 368 46 q 411 68 400 60 q 433 89 424 76 q 431 103 432 96 q 426 139 426 118 l 426 435 q 423 483 426 463 q 417 519 419 504 q 406 549 411 536 q 383 478 403 511 q 336 426 363 444 q 286 392 310 408 q 245 351 263 375 q 217 295 228 328 q 207 214 207 263 q 248 87 207 128 q 344 46 289 46 z "},"":{"ha":704,"x_min":35,"x_max":679,"o":"m 176 764 l 176 893 l 294 893 l 294 764 l 176 764 m 411 764 l 411 893 l 529 893 l 529 764 l 411 764 m 668 42 q 678 33 676 42 q 671 19 679 25 q 638 12 667 17 q 569 7 610 7 q 508 17 532 7 q 469 39 483 28 q 443 71 451 53 q 394 32 424 49 q 334 5 371 17 q 246 -7 297 -7 q 166 8 204 -7 q 99 49 128 22 q 52 110 69 75 q 35 189 35 146 q 48 268 35 235 q 82 326 61 301 q 131 367 103 350 q 188 394 158 383 q 221 406 201 400 q 261 421 240 413 q 302 440 282 429 q 338 468 322 451 q 368 523 361 493 q 369 580 375 553 q 344 626 363 607 q 296 650 325 646 q 237 640 261 654 q 197 599 213 625 q 174 538 182 572 q 167 469 167 504 l 65 486 q 167 643 96 596 q 357 690 239 690 q 451 681 404 690 q 537 644 499 671 q 599 569 575 617 q 624 446 624 521 l 624 132 q 624 105 624 121 q 628 75 624 89 q 641 51 632 61 q 668 42 650 42 m 344 46 q 384 53 368 46 q 411 68 400 60 q 433 89 424 76 q 431 103 432 96 q 426 139 426 118 l 426 435 q 423 483 426 463 q 417 519 419 504 q 406 549 411 536 q 383 478 403 511 q 336 426 363 444 q 286 392 310 408 q 245 351 263 375 q 217 295 228 328 q 207 214 207 263 q 248 87 207 128 q 344 46 289 46 z "},"":{"ha":674,"x_min":35,"x_max":651,"o":"m 635 142 q 644 142 638 146 q 647 131 651 138 q 607 83 632 107 q 548 39 582 58 q 472 7 514 19 q 376 -6 429 -6 l 367 -37 q 405 -47 386 -40 q 439 -65 424 -53 q 464 -92 454 -76 q 474 -131 474 -108 q 456 -188 474 -165 q 410 -225 438 -211 q 351 -244 383 -239 q 292 -250 319 -250 q 243 -248 265 -250 q 201 -243 221 -246 l 208 -169 q 242 -171 228 -171 q 268 -171 257 -171 q 297 -170 279 -171 q 330 -165 314 -169 q 357 -150 346 -160 q 368 -124 368 -140 q 361 -104 368 -111 q 344 -92 356 -96 q 318 -85 332 -87 q 291 -83 304 -83 q 269 -82 278 -82 l 294 3 q 104 114 174 26 q 35 340 35 201 q 60 479 35 415 q 129 590 85 543 q 235 662 174 636 q 371 688 297 688 q 515 656 461 688 q 599 588 568 625 q 647 488 633 543 l 492 463 q 465 525 485 488 q 419 594 446 563 q 359 645 392 626 q 292 653 326 664 q 240 608 258 643 q 217 526 222 572 q 218 431 213 481 q 238 340 224 381 q 293 224 261 274 q 360 143 325 175 q 433 96 396 111 q 506 81 471 81 q 580 97 550 81 q 635 142 610 114 z "},"":{"ha":685,"x_min":32,"x_max":653,"o":"m 461 764 l 371 764 l 225 940 l 376 940 l 461 764 m 631 138 q 644 139 636 144 q 649 124 653 133 q 609 75 635 99 q 547 34 583 51 q 463 6 510 17 q 363 -6 417 -6 q 231 18 290 -6 q 129 86 172 42 q 62 193 86 131 q 35 332 38 256 q 54 470 32 406 q 121 583 76 535 q 365 688 214 688 q 483 667 432 688 q 568 616 533 647 q 622 548 603 585 q 643 478 642 511 q 639 413 646 443 q 614 361 632 383 q 566 326 596 339 q 492 314 536 314 q 457 315 475 314 q 419 321 439 317 q 368 322 392 326 q 328 307 344 318 q 303 278 311 296 q 297 238 294 260 q 321 181 300 210 q 373 128 342 151 q 442 90 404 104 q 517 78 479 75 q 589 99 561 81 q 631 138 617 118 m 264 276 q 285 315 269 297 q 322 345 299 331 q 385 367 346 360 q 442 396 422 372 q 467 451 463 419 q 463 519 471 483 q 436 585 454 554 q 391 635 418 615 q 332 654 364 654 q 262 630 288 654 q 225 569 236 606 q 214 487 214 532 q 222 400 214 442 q 241 324 229 358 q 264 276 253 290 z "},"":{"ha":685,"x_min":32,"x_max":653,"o":"m 458 940 l 319 764 l 226 764 l 310 940 l 458 940 m 631 138 q 644 139 636 144 q 649 124 653 133 q 609 75 635 99 q 547 34 583 51 q 463 6 510 17 q 363 -6 417 -6 q 231 18 290 -6 q 129 86 172 42 q 62 193 86 131 q 35 332 38 256 q 54 470 32 406 q 121 583 76 535 q 365 688 214 688 q 483 667 432 688 q 568 616 533 647 q 622 548 603 585 q 643 478 642 511 q 639 413 646 443 q 614 361 632 383 q 566 326 596 339 q 492 314 536 314 q 457 315 475 314 q 419 321 439 317 q 368 322 392 326 q 328 307 344 318 q 303 278 311 296 q 297 238 294 260 q 321 181 300 210 q 373 128 342 151 q 442 90 404 104 q 517 78 479 75 q 589 99 561 81 q 631 138 617 118 m 264 276 q 285 315 269 297 q 322 345 299 331 q 385 367 346 360 q 442 396 422 372 q 467 451 463 419 q 463 519 471 483 q 436 585 454 554 q 391 635 418 615 q 332 654 364 654 q 262 630 288 654 q 225 569 236 606 q 214 487 214 532 q 222 400 214 442 q 241 324 229 358 q 264 276 253 290 z "},"":{"ha":685,"x_min":32,"x_max":653,"o":"m 542 764 l 413 764 l 343 871 l 272 764 l 143 764 l 279 940 l 400 940 l 542 764 m 631 138 q 644 139 636 144 q 649 124 653 133 q 609 75 635 99 q 547 34 583 51 q 463 6 510 17 q 363 -6 417 -6 q 231 18 290 -6 q 129 86 172 42 q 62 193 86 131 q 35 332 38 256 q 54 470 32 406 q 121 583 76 535 q 365 688 214 688 q 483 667 432 688 q 568 616 533 647 q 622 548 603 585 q 643 478 642 511 q 639 413 646 443 q 614 361 632 383 q 566 326 596 339 q 492 314 536 314 q 457 315 475 314 q 419 321 439 317 q 368 322 392 326 q 328 307 344 318 q 303 278 311 296 q 297 238 294 260 q 321 181 300 210 q 373 128 342 151 q 442 90 404 104 q 517 78 479 75 q 589 99 561 81 q 631 138 617 118 m 264 276 q 285 315 269 297 q 322 345 299 331 q 385 367 346 360 q 442 396 422 372 q 467 451 463 419 q 463 519 471 483 q 436 585 454 554 q 391 635 418 615 q 332 654 364 654 q 262 630 288 654 q 225 569 236 606 q 214 487 214 532 q 222 400 214 442 q 241 324 229 358 q 264 276 253 290 z "},"":{"ha":685,"x_min":32,"x_max":653,"o":"m 167 764 l 167 893 l 285 893 l 285 764 l 167 764 m 401 764 l 401 893 l 519 893 l 519 764 l 401 764 m 631 138 q 644 139 636 144 q 649 124 653 133 q 609 75 635 99 q 547 34 583 51 q 463 6 510 17 q 363 -6 417 -6 q 231 18 290 -6 q 129 86 172 42 q 62 193 86 131 q 35 332 38 256 q 54 470 32 406 q 121 583 76 535 q 365 688 214 688 q 483 667 432 688 q 568 616 533 647 q 622 548 603 585 q 643 478 642 511 q 639 413 646 443 q 614 361 632 383 q 566 326 596 339 q 492 314 536 314 q 457 315 475 314 q 419 321 439 317 q 368 322 392 326 q 328 307 344 318 q 303 278 311 296 q 297 238 294 260 q 321 181 300 210 q 373 128 342 151 q 442 90 404 104 q 517 78 479 75 q 589 99 561 81 q 631 138 617 118 m 264 276 q 285 315 269 297 q 322 345 299 331 q 385 367 346 360 q 442 396 422 372 q 467 451 463 419 q 463 519 471 483 q 436 585 454 554 q 391 635 418 615 q 332 654 364 654 q 262 630 288 654 q 225 569 236 606 q 214 487 214 532 q 222 400 214 442 q 241 324 229 358 q 264 276 253 290 z "},"":{"ha":318,"x_min":42,"x_max":278,"o":"m 278 764 l 188 764 l 42 940 l 193 940 l 278 764 m 208 665 q 242 651 228 665 q 256 618 256 638 l 256 0 l 63 0 l 63 665 l 208 665 z "},"":{"ha":318,"x_min":43,"x_max":275,"o":"m 275 940 l 136 764 l 43 764 l 126 940 l 275 940 m 208 665 q 242 651 228 665 q 256 618 256 638 l 256 0 l 63 0 l 63 665 l 208 665 z "},"":{"ha":318,"x_min":-40,"x_max":358,"o":"m 358 764 l 229 764 l 160 871 l 89 764 l -40 764 l 96 940 l 217 940 l 358 764 m 208 665 q 242 651 228 665 q 256 618 256 638 l 256 0 l 63 0 l 63 665 l 208 665 z "},"":{"ha":318,"x_min":-18,"x_max":335,"o":"m -18 764 l -18 893 l 100 893 l 100 764 l -18 764 m 217 764 l 217 893 l 335 893 l 335 764 l 217 764 m 208 665 q 242 651 228 665 q 256 618 256 638 l 256 0 l 63 0 l 63 665 l 208 665 z "},"":{"ha":681,"x_min":63,"x_max":619,"o":"m 551 910 q 515 801 550 840 q 428 767 481 767 q 324 801 388 767 q 263 824 283 824 q 224 806 235 824 q 214 764 214 788 l 131 764 q 167 868 131 832 q 258 908 203 908 q 364 874 294 908 q 424 856 400 856 q 454 865 444 856 q 469 910 465 879 l 551 910 m 454 688 q 522 674 492 688 q 574 638 553 660 q 608 589 596 617 q 619 532 619 561 l 619 8 l 428 8 l 428 181 q 438 290 426 236 q 475 392 449 343 q 508 490 504 446 q 499 567 511 535 q 460 616 486 599 q 406 633 435 633 q 351 621 378 633 q 301 593 324 608 q 256 551 278 575 l 256 8 l 63 8 l 63 674 l 208 674 q 242 660 228 674 q 256 626 256 646 l 256 586 q 284 617 268 600 q 324 651 300 635 q 379 677 347 667 q 454 688 411 688 z "},"":{"ha":731,"x_min":31,"x_max":699,"o":"m 483 764 l 393 764 l 247 940 l 399 940 l 483 764 m 663 474 q 696 338 693 407 q 678 208 699 269 q 615 96 658 146 q 511 18 572 46 q 383 -10 447 -10 q 288 5 335 -10 q 200 47 242 19 q 124 115 158 75 q 67 204 90 154 q 33 340 36 271 q 51 472 31 410 q 115 583 72 533 q 219 660 158 632 q 346 688 282 688 q 441 673 394 688 q 529 631 488 658 q 606 563 571 603 q 663 474 640 524 m 501 38 q 533 81 524 49 q 538 161 542 114 q 518 267 535 208 q 474 389 501 326 q 419 492 449 444 q 358 573 389 539 q 299 626 328 607 q 247 644 271 644 q 228 640 236 644 q 197 598 206 631 q 192 518 188 565 q 212 412 196 471 q 257 290 228 353 q 318 177 285 228 q 385 92 351 126 q 449 42 418 57 q 501 38 479 28 z "},"":{"ha":731,"x_min":31,"x_max":699,"o":"m 482 940 l 343 764 l 250 764 l 333 940 l 482 940 m 663 474 q 696 338 693 407 q 678 208 699 269 q 615 96 658 146 q 511 18 572 46 q 383 -10 447 -10 q 288 5 335 -10 q 200 47 242 19 q 124 115 158 75 q 67 204 90 154 q 33 340 36 271 q 51 472 31 410 q 115 583 72 533 q 219 660 158 632 q 346 688 282 688 q 441 673 394 688 q 529 631 488 658 q 606 563 571 603 q 663 474 640 524 m 501 38 q 533 81 524 49 q 538 161 542 114 q 518 267 535 208 q 474 389 501 326 q 419 492 449 444 q 358 573 389 539 q 299 626 328 607 q 247 644 271 644 q 228 640 236 644 q 197 598 206 631 q 192 518 188 565 q 212 412 196 471 q 257 290 228 353 q 318 177 285 228 q 385 92 351 126 q 449 42 418 57 q 501 38 479 28 z "},"":{"ha":731,"x_min":31,"x_max":699,"o":"m 565 764 l 436 764 l 367 871 l 296 764 l 167 764 l 303 940 l 424 940 l 565 764 m 663 474 q 696 338 693 407 q 678 208 699 269 q 615 96 658 146 q 511 18 572 46 q 383 -10 447 -10 q 288 5 335 -10 q 200 47 242 19 q 124 115 158 75 q 67 204 90 154 q 33 340 36 271 q 51 472 31 410 q 115 583 72 533 q 219 660 158 632 q 346 688 282 688 q 441 673 394 688 q 529 631 488 658 q 606 563 571 603 q 663 474 640 524 m 501 38 q 533 81 524 49 q 538 161 542 114 q 518 267 535 208 q 474 389 501 326 q 419 492 449 444 q 358 573 389 539 q 299 626 328 607 q 247 644 271 644 q 228 640 236 644 q 197 598 206 631 q 192 518 188 565 q 212 412 196 471 q 257 290 228 353 q 318 177 285 228 q 385 92 351 126 q 449 42 418 57 q 501 38 479 28 z "},"":{"ha":731,"x_min":31,"x_max":699,"o":"m 576 910 q 540 801 575 840 q 453 767 506 767 q 349 801 413 767 q 288 824 308 824 q 249 806 260 824 q 239 764 239 788 l 156 764 q 192 868 156 832 q 283 908 228 908 q 389 874 319 908 q 449 856 425 856 q 479 865 469 856 q 494 910 490 879 l 576 910 m 663 474 q 696 338 693 407 q 678 208 699 269 q 615 96 658 146 q 511 18 572 46 q 383 -10 447 -10 q 288 5 335 -10 q 200 47 242 19 q 124 115 158 75 q 67 204 90 154 q 33 340 36 271 q 51 472 31 410 q 115 583 72 533 q 219 660 158 632 q 346 688 282 688 q 441 673 394 688 q 529 631 488 658 q 606 563 571 603 q 663 474 640 524 m 501 38 q 533 81 524 49 q 538 161 542 114 q 518 267 535 208 q 474 389 501 326 q 419 492 449 444 q 358 573 389 539 q 299 626 328 607 q 247 644 271 644 q 228 640 236 644 q 197 598 206 631 q 192 518 188 565 q 212 412 196 471 q 257 290 228 353 q 318 177 285 228 q 385 92 351 126 q 449 42 418 57 q 501 38 479 28 z "},"":{"ha":731,"x_min":31,"x_max":699,"o":"m 189 764 l 189 893 l 307 893 l 307 764 l 189 764 m 424 764 l 424 893 l 542 893 l 542 764 l 424 764 m 663 474 q 696 338 693 407 q 678 208 699 269 q 615 96 658 146 q 511 18 572 46 q 383 -10 447 -10 q 288 5 335 -10 q 200 47 242 19 q 124 115 158 75 q 67 204 90 154 q 33 340 36 271 q 51 472 31 410 q 115 583 72 533 q 219 660 158 632 q 346 688 282 688 q 441 673 394 688 q 529 631 488 658 q 606 563 571 603 q 663 474 640 524 m 501 38 q 533 81 524 49 q 538 161 542 114 q 518 267 535 208 q 474 389 501 326 q 419 492 449 444 q 358 573 389 539 q 299 626 328 607 q 247 644 271 644 q 228 640 236 644 q 197 598 206 631 q 192 518 188 565 q 212 412 196 471 q 257 290 228 353 q 318 177 285 228 q 385 92 351 126 q 449 42 418 57 q 501 38 479 28 z "},"":{"ha":682,"x_min":60,"x_max":617,"o":"m 460 764 l 369 764 l 224 940 l 375 940 l 460 764 m 617 674 l 617 7 l 472 7 q 439 21 453 7 q 425 54 425 35 l 425 96 q 396 64 413 82 q 356 31 379 46 q 301 5 333 15 q 226 -6 269 -6 q 157 8 188 -6 q 105 44 126 22 q 72 93 83 65 q 60 150 60 121 l 60 674 l 253 674 l 253 501 q 242 392 253 446 q 204 290 231 339 q 172 192 175 236 q 181 115 168 147 q 220 66 194 83 q 275 49 246 49 q 331 62 304 49 q 379 90 358 75 q 425 131 403 107 l 425 674 l 617 674 z "},"":{"ha":682,"x_min":60,"x_max":617,"o":"m 457 940 l 318 764 l 225 764 l 308 940 l 457 940 m 617 674 l 617 7 l 472 7 q 439 21 453 7 q 425 54 425 35 l 425 96 q 396 64 413 82 q 356 31 379 46 q 301 5 333 15 q 226 -6 269 -6 q 157 8 188 -6 q 105 44 126 22 q 72 93 83 65 q 60 150 60 121 l 60 674 l 253 674 l 253 501 q 242 392 253 446 q 204 290 231 339 q 172 192 175 236 q 181 115 168 147 q 220 66 194 83 q 275 49 246 49 q 331 62 304 49 q 379 90 358 75 q 425 131 403 107 l 425 674 l 617 674 z "},"":{"ha":682,"x_min":60,"x_max":617,"o":"m 540 764 l 411 764 l 342 871 l 271 764 l 142 764 l 278 940 l 399 940 l 540 764 m 617 674 l 617 7 l 472 7 q 439 21 453 7 q 425 54 425 35 l 425 96 q 396 64 413 82 q 356 31 379 46 q 301 5 333 15 q 226 -6 269 -6 q 157 8 188 -6 q 105 44 126 22 q 72 93 83 65 q 60 150 60 121 l 60 674 l 253 674 l 253 501 q 242 392 253 446 q 204 290 231 339 q 172 192 175 236 q 181 115 168 147 q 220 66 194 83 q 275 49 246 49 q 331 62 304 49 q 379 90 358 75 q 425 131 403 107 l 425 674 l 617 674 z "},"":{"ha":682,"x_min":60,"x_max":617,"o":"m 165 764 l 165 893 l 283 893 l 283 764 l 165 764 m 400 764 l 400 893 l 518 893 l 518 764 l 400 764 m 617 674 l 617 7 l 472 7 q 439 21 453 7 q 425 54 425 35 l 425 96 q 396 64 413 82 q 356 31 379 46 q 301 5 333 15 q 226 -6 269 -6 q 157 8 188 -6 q 105 44 126 22 q 72 93 83 65 q 60 150 60 121 l 60 674 l 253 674 l 253 501 q 242 392 253 446 q 204 290 231 339 q 172 192 175 236 q 181 115 168 147 q 220 66 194 83 q 275 49 246 49 q 331 62 304 49 q 379 90 358 75 q 425 131 403 107 l 425 674 l 617 674 z "},"":{"ha":610,"x_min":-11,"x_max":600,"o":"m 421 940 l 282 764 l 189 764 l 272 940 l 421 940 m 585 674 q 597 660 600 674 q 582 594 594 632 q 554 516 569 556 q 524 442 539 476 q 501 386 510 407 q 476 322 492 361 q 442 238 460 283 q 405 148 424 193 q 371 67 386 103 q 357 32 364 49 q 346 4 351 18 q 338 -17 340 -10 q 246 -184 296 -125 q 114 -243 196 -243 q 72 -236 92 -243 q 35 -219 51 -229 q 6 -197 18 -208 q -11 -178 -6 -186 l 63 -29 q 106 -64 83 -49 q 151 -87 125 -76 q 203 -97 176 -97 q 260 -80 232 -97 q 313 -15 289 -62 q 317 -6 315 -11 q 322 7 319 0 l 297 7 q 265 26 274 7 q 245 78 260 42 q 211 163 231 114 q 169 268 192 211 q 124 382 146 325 q 7 674 69 514 l 174 674 q 219 660 199 674 q 249 624 240 647 l 404 211 q 417 242 410 224 q 432 279 424 257 q 451 331 440 301 q 469 431 471 381 q 458 526 468 482 q 431 605 447 571 q 404 653 415 639 q 401 667 400 660 q 411 674 403 674 l 585 674 z "},"":{"ha":610,"x_min":-11,"x_max":600,"o":"m 129 764 l 129 893 l 247 893 l 247 764 l 129 764 m 364 764 l 364 893 l 482 893 l 482 764 l 364 764 m 585 674 q 597 660 600 674 q 582 594 594 632 q 554 516 569 556 q 524 442 539 476 q 501 386 510 407 q 476 322 492 361 q 442 238 460 283 q 405 148 424 193 q 371 67 386 103 q 357 32 364 49 q 346 4 351 18 q 338 -17 340 -10 q 246 -184 296 -125 q 114 -243 196 -243 q 72 -236 92 -243 q 35 -219 51 -229 q 6 -197 18 -208 q -11 -178 -6 -186 l 63 -29 q 106 -64 83 -49 q 151 -87 125 -76 q 203 -97 176 -97 q 260 -80 232 -97 q 313 -15 289 -62 q 317 -6 315 -11 q 322 7 319 0 l 297 7 q 265 26 274 7 q 245 78 260 42 q 211 163 231 114 q 169 268 192 211 q 124 382 146 325 q 7 674 69 514 l 174 674 q 219 660 199 674 q 249 624 240 647 l 404 211 q 417 242 410 224 q 432 279 424 257 q 451 331 440 301 q 469 431 471 381 q 458 526 468 482 q 431 605 447 571 q 404 653 415 639 q 401 667 400 660 q 411 674 403 674 l 585 674 z "},"":{"ha":746,"x_min":28,"x_max":718,"o":"m 572 1186 l 431 1010 l 310 1010 l 174 1186 l 303 1186 l 374 1079 l 443 1186 l 572 1186 m 439 557 q 538 497 488 528 q 628 431 588 467 q 693 353 668 394 q 718 261 718 311 q 698 151 718 201 q 636 65 678 100 q 530 9 594 29 q 375 -11 465 -11 q 284 -2 325 -11 q 210 22 243 7 q 150 56 176 36 q 103 94 124 75 q 28 200 56 140 l 139 318 q 148 321 143 322 q 156 314 153 319 q 173 271 161 299 q 202 210 185 243 q 241 144 219 178 q 288 83 263 111 q 344 38 314 56 q 406 21 374 21 q 482 49 450 21 q 514 139 514 78 q 496 201 514 172 q 448 259 478 231 q 379 315 418 288 q 299 368 340 342 q 209 428 253 397 q 131 494 165 458 q 76 570 97 529 q 54 661 54 611 q 79 781 54 729 q 146 868 104 833 q 240 921 188 903 q 347 939 293 939 q 506 913 443 939 q 607 856 569 888 q 675 771 651 818 q 635 728 654 747 q 601 694 618 711 q 575 671 585 678 q 535 656 554 656 q 496 671 511 656 q 476 701 481 686 q 452 769 467 732 q 417 840 438 807 q 367 894 396 872 q 303 917 339 917 q 247 883 269 917 q 233 798 225 850 q 288 682 240 746 q 439 557 335 618 z "},"":{"ha":628,"x_min":25,"x_max":599,"o":"m 514 940 l 372 764 l 251 764 l 115 940 l 244 940 l 315 833 l 385 940 l 514 940 m 500 326 q 536 298 517 315 q 570 257 556 281 q 592 204 585 233 q 590 139 599 175 q 564 87 585 113 q 508 40 543 61 q 426 7 474 19 q 319 -6 379 -6 q 218 11 265 -6 q 133 49 171 28 q 70 93 96 71 q 33 128 44 115 q 32 147 25 136 l 121 261 q 127 264 124 264 q 132 261 131 264 q 160 202 140 243 q 211 119 181 161 q 280 47 242 78 q 361 15 318 15 q 417 33 399 15 q 437 78 436 51 q 420 135 438 106 q 368 189 403 165 q 310 228 342 207 q 249 269 279 249 q 192 309 219 290 q 146 340 165 328 q 108 373 129 351 q 73 423 88 394 q 54 487 58 451 q 67 561 50 522 q 105 618 81 594 q 158 658 129 642 q 218 681 188 674 q 275 688 249 688 q 426 670 367 688 q 519 631 485 653 q 582 574 560 606 q 559 544 572 560 q 531 516 546 529 q 500 494 517 503 q 464 485 483 485 q 399 519 421 485 q 323 622 358 582 q 251 661 288 661 q 217 650 235 661 q 193 620 200 640 q 191 576 186 600 q 214 528 196 553 q 265 481 232 503 q 320 444 288 465 q 386 401 353 422 q 451 359 419 379 q 500 326 482 339 z "},"":{"ha":757,"x_min":-8,"x_max":760,"o":"m 203 1010 l 203 1139 l 321 1139 l 321 1010 l 203 1010 m 438 1010 l 438 1139 l 556 1139 l 556 1010 l 438 1010 m 283 1 l 283 490 l -6 911 q -6 917 -8 914 q 0 921 -4 921 l 167 921 q 233 885 208 921 q 301 785 261 844 q 382 667 342 725 q 476 526 428 599 q 538 632 515 572 q 571 747 561 692 q 578 846 581 803 q 565 901 576 889 q 563 915 561 908 q 572 921 564 921 l 746 921 q 760 908 760 921 q 729 826 760 879 q 655 710 699 772 q 562 590 611 649 q 476 490 513 531 l 476 1 l 283 1 z "},"":{"ha":779,"x_min":8,"x_max":760,"o":"m 589 1186 l 447 1010 l 326 1010 l 190 1186 l 319 1186 l 390 1079 l 460 1186 l 589 1186 m 740 919 q 755 912 750 919 q 756 896 760 904 l 268 25 l 496 25 q 603 51 561 25 q 670 111 646 76 q 704 181 694 146 q 714 232 714 215 l 740 232 l 740 0 l 28 0 q 13 8 18 0 q 13 25 8 17 l 503 894 l 325 894 q 217 869 260 894 q 151 809 175 843 q 117 740 126 775 q 107 688 107 706 l 79 688 l 79 919 l 740 919 z "},"":{"ha":644,"x_min":25,"x_max":608,"o":"m 522 940 l 381 764 l 260 764 l 124 940 l 253 940 l 324 833 l 393 940 l 522 940 m 607 239 l 607 7 l 44 7 q 30 15 35 7 q 29 32 25 24 l 353 649 l 303 649 q 195 623 238 649 q 128 563 153 597 q 94 493 104 528 q 85 442 85 458 l 58 442 l 58 674 l 589 674 q 603 665 599 674 q 604 649 608 657 l 285 32 l 361 32 q 470 58 428 32 q 537 118 513 83 q 570 188 561 153 q 579 239 579 222 l 607 239 z "}}}
